<svg width="512" height="126" viewBox="0 0 512 126" fill="none" xmlns="http://www.w3.org/2000/svg">
<path d="M47 36.7L47.1 61.5L33.6 61.8L20 62.1V64.5V67H33.8H47.5L47.2 91.5L46.9 116H258.5H470V91.5V67H484H498V64.5V62H484H470V37V12H258.5H46.9L47 36.7ZM466 64V112H258.5H51V64V16H258.5H466V64Z" fill="black"/>
<path d="M68.464 61.848C68.624 61.752 68.8533 61.656 69.152 61.56C69.4613 61.4533 69.8027 61.4 70.176 61.4C70.6773 61.4 71.1253 61.496 71.52 61.688C71.9147 61.88 72.2453 62.1467 72.512 62.488C72.7893 62.8293 72.9973 63.24 73.136 63.72C73.2853 64.1893 73.36 64.712 73.36 65.288C73.36 65.8853 73.2747 66.424 73.104 66.904C72.9333 67.384 72.6933 67.7947 72.384 68.136C72.0747 68.4667 71.7013 68.7227 71.264 68.904C70.8267 69.0853 70.3413 69.176 69.808 69.176C69.2213 69.176 68.6987 69.1333 68.24 69.048C67.7813 68.9627 67.4133 68.8773 67.136 68.792V58.136L68.464 57.912V61.848ZM68.464 67.848C68.6667 67.9013 68.8693 67.944 69.072 67.976C69.2747 67.9973 69.4667 68.008 69.648 68.008C70.384 68.008 70.96 67.784 71.376 67.336C71.792 66.8773 72 66.1947 72 65.288C72 64.904 71.9627 64.5467 71.888 64.216C71.8133 63.8747 71.696 63.5867 71.536 63.352C71.376 63.1067 71.168 62.9147 70.912 62.776C70.6667 62.6373 70.368 62.568 70.016 62.568C69.7067 62.568 69.408 62.632 69.12 62.76C68.832 62.8773 68.6133 63.0053 68.464 63.144V67.848ZM77.344 60.424C77.0667 60.424 76.8267 60.328 76.624 60.136C76.4213 59.944 76.32 59.6827 76.32 59.352C76.32 59.0213 76.4213 58.76 76.624 58.568C76.8267 58.376 77.0667 58.28 77.344 58.28C77.632 58.28 77.872 58.376 78.064 58.568C78.2667 58.76 78.368 59.0213 78.368 59.352C78.368 59.6827 78.2667 59.944 78.064 60.136C77.872 60.328 77.632 60.424 77.344 60.424ZM77.008 62.68H74.864V61.576H78.32V66.136C78.32 66.872 78.4213 67.368 78.624 67.624C78.8267 67.8693 79.1307 67.992 79.536 67.992C79.8453 67.992 80.128 67.9547 80.384 67.88C80.6507 67.8053 80.8587 67.7253 81.008 67.64L81.2 68.76C81.136 68.792 81.0453 68.8347 80.928 68.888C80.8107 68.9307 80.672 68.9733 80.512 69.016C80.3627 69.0587 80.192 69.096 80 69.128C79.8187 69.16 79.6267 69.176 79.424 69.176C78.9547 69.176 78.5653 69.112 78.256 68.984C77.9467 68.856 77.696 68.664 77.504 68.408C77.3227 68.152 77.1947 67.8373 77.12 67.464C77.0453 67.08 77.008 66.6373 77.008 66.136V62.68ZM83.136 61.784C83.616 61.6667 84.0907 61.576 84.56 61.512C85.04 61.448 85.488 61.416 85.904 61.416C86.896 61.416 87.6427 61.672 88.144 62.184C88.656 62.696 88.912 63.5173 88.912 64.648V69H87.6V64.888C87.6 64.408 87.5573 64.0187 87.472 63.72C87.3867 63.4213 87.264 63.192 87.104 63.032C86.9547 62.8613 86.768 62.744 86.544 62.68C86.3307 62.616 86.096 62.584 85.84 62.584C85.6267 62.584 85.3973 62.6 85.152 62.632C84.9173 62.6533 84.688 62.6853 84.464 62.728V69H83.136V61.784ZM92.288 57.816H96.112V58.856H93.536V70.6H96.112V71.64H92.288V57.816ZM101.392 68.04C102.235 68.04 102.832 67.8747 103.184 67.544C103.547 67.2027 103.728 66.7493 103.728 66.184C103.728 65.8213 103.653 65.5173 103.504 65.272C103.355 65.0267 103.157 64.8293 102.912 64.68C102.667 64.5307 102.384 64.424 102.064 64.36C101.744 64.296 101.408 64.264 101.056 64.264H100.72V63.192H101.184C101.419 63.192 101.659 63.1707 101.904 63.128C102.16 63.0747 102.389 62.9893 102.592 62.872C102.805 62.744 102.976 62.5733 103.104 62.36C103.232 62.1467 103.296 61.8747 103.296 61.544C103.296 61 103.125 60.616 102.784 60.392C102.453 60.1573 102.064 60.04 101.616 60.04C101.157 60.04 100.768 60.1093 100.448 60.248C100.128 60.376 99.8613 60.5093 99.648 60.648L99.136 59.64C99.36 59.48 99.696 59.3147 100.144 59.144C100.603 58.9627 101.109 58.872 101.664 58.872C102.187 58.872 102.635 58.936 103.008 59.064C103.381 59.192 103.685 59.3733 103.92 59.608C104.165 59.8427 104.347 60.12 104.464 60.44C104.581 60.7493 104.64 61.0907 104.64 61.464C104.64 61.9867 104.501 62.4293 104.224 62.792C103.957 63.1547 103.611 63.432 103.184 63.624C103.696 63.7733 104.139 64.0667 104.512 64.504C104.885 64.9307 105.072 65.5013 105.072 66.216C105.072 66.6427 104.997 67.0427 104.848 67.416C104.709 67.7787 104.491 68.0933 104.192 68.36C103.904 68.6267 103.525 68.8347 103.056 68.984C102.597 69.1333 102.048 69.208 101.408 69.208C101.163 69.208 100.907 69.1867 100.64 69.144C100.384 69.112 100.144 69.064 99.92 69C99.696 68.9467 99.4933 68.8933 99.312 68.84C99.1413 68.776 99.0187 68.728 98.944 68.696L99.2 67.56C99.3707 67.6453 99.6427 67.7467 100.016 67.864C100.389 67.9813 100.848 68.04 101.392 68.04ZM111.184 67.976C111.184 68.296 111.077 68.5787 110.864 68.824C110.651 69.0693 110.368 69.192 110.016 69.192C109.653 69.192 109.365 69.0693 109.152 68.824C108.939 68.5787 108.832 68.296 108.832 67.976C108.832 67.6453 108.939 67.3573 109.152 67.112C109.365 66.8667 109.653 66.744 110.016 66.744C110.368 66.744 110.651 66.8667 110.864 67.112C111.077 67.3573 111.184 67.6453 111.184 67.976ZM111.184 62.808C111.184 63.128 111.077 63.4107 110.864 63.656C110.651 63.9013 110.368 64.024 110.016 64.024C109.653 64.024 109.365 63.9013 109.152 63.656C108.939 63.4107 108.832 63.128 108.832 62.808C108.832 62.4773 108.939 62.1893 109.152 61.944C109.365 61.6987 109.653 61.576 110.016 61.576C110.368 61.576 110.651 61.6987 110.864 61.944C111.077 62.1893 111.184 62.4773 111.184 62.808ZM118.928 63.864C118.928 64.1413 118.843 64.3813 118.672 64.584C118.512 64.7867 118.299 64.888 118.032 64.888C117.755 64.888 117.531 64.7867 117.36 64.584C117.189 64.3813 117.104 64.1413 117.104 63.864C117.104 63.5867 117.189 63.3413 117.36 63.128C117.531 62.9147 117.755 62.808 118.032 62.808C118.299 62.808 118.512 62.9147 118.672 63.128C118.843 63.3413 118.928 63.5867 118.928 63.864ZM114.736 64.04C114.736 62.376 115.019 61.1013 115.584 60.216C116.16 59.32 116.965 58.872 118 58.872C119.045 58.872 119.851 59.32 120.416 60.216C120.981 61.1013 121.264 62.376 121.264 64.04C121.264 65.704 120.981 66.984 120.416 67.88C119.851 68.7653 119.045 69.208 118 69.208C116.965 69.208 116.16 68.7653 115.584 67.88C115.019 66.984 114.736 65.704 114.736 64.04ZM119.92 64.04C119.92 63.496 119.888 62.984 119.824 62.504C119.76 62.0133 119.653 61.5867 119.504 61.224C119.355 60.8613 119.157 60.5733 118.912 60.36C118.667 60.1467 118.363 60.04 118 60.04C117.637 60.04 117.333 60.1467 117.088 60.36C116.843 60.5733 116.645 60.8613 116.496 61.224C116.347 61.5867 116.24 62.0133 116.176 62.504C116.112 62.984 116.08 63.496 116.08 64.04C116.08 64.584 116.112 65.1013 116.176 65.592C116.24 66.072 116.347 66.4933 116.496 66.856C116.645 67.2187 116.843 67.5067 117.088 67.72C117.333 67.9333 117.637 68.04 118 68.04C118.363 68.04 118.667 67.9333 118.912 67.72C119.157 67.5067 119.355 67.2187 119.504 66.856C119.653 66.4933 119.76 66.072 119.824 65.592C119.888 65.1013 119.92 64.584 119.92 64.04ZM127.712 71.64H123.888V70.6H126.464V58.856H123.888V57.816H127.712V71.64Z" fill="black"/>
<path d="M380.08 68.056C380.411 68.056 380.704 68.0453 380.96 68.024C381.227 68.0027 381.445 67.976 381.616 67.944V65.736C381.445 65.6827 381.237 65.64 380.992 65.608C380.757 65.576 380.507 65.56 380.24 65.56C379.995 65.56 379.755 65.5813 379.52 65.624C379.285 65.656 379.077 65.72 378.896 65.816C378.715 65.912 378.565 66.04 378.448 66.2C378.331 66.3493 378.272 66.5413 378.272 66.776C378.272 67.256 378.432 67.592 378.752 67.784C379.083 67.9653 379.525 68.056 380.08 68.056ZM379.952 61.4C380.507 61.4 380.971 61.4693 381.344 61.608C381.728 61.7467 382.037 61.9387 382.272 62.184C382.507 62.4293 382.672 62.728 382.768 63.08C382.864 63.432 382.912 63.816 382.912 64.232V68.872C382.603 68.9253 382.192 68.9893 381.68 69.064C381.179 69.1387 380.661 69.176 380.128 69.176C379.723 69.176 379.328 69.1387 378.944 69.064C378.56 69 378.219 68.8827 377.92 68.712C377.621 68.5307 377.381 68.2853 377.2 67.976C377.019 67.6667 376.928 67.272 376.928 66.792C376.928 66.3653 377.019 66.008 377.2 65.72C377.392 65.4213 377.632 65.1813 377.92 65C378.219 64.8187 378.555 64.6907 378.928 64.616C379.312 64.5307 379.696 64.488 380.08 64.488C380.603 64.488 381.115 64.5467 381.616 64.664V64.296C381.616 64.072 381.589 63.8587 381.536 63.656C381.493 63.4427 381.403 63.2507 381.264 63.08C381.136 62.9093 380.955 62.776 380.72 62.68C380.496 62.5733 380.203 62.52 379.84 62.52C379.381 62.52 378.981 62.552 378.64 62.616C378.299 62.68 378.037 62.744 377.856 62.808L377.696 61.72C377.877 61.6347 378.176 61.56 378.592 61.496C379.019 61.432 379.472 61.4 379.952 61.4ZM389.616 67.144C389.616 66.8773 389.504 66.6587 389.28 66.488C389.067 66.3173 388.795 66.168 388.464 66.04C388.144 65.912 387.792 65.7893 387.408 65.672C387.024 65.544 386.667 65.3893 386.336 65.208C386.016 65.0267 385.744 64.8027 385.52 64.536C385.307 64.2693 385.2 63.9227 385.2 63.496C385.2 62.8987 385.44 62.4027 385.92 62.008C386.411 61.6027 387.173 61.4 388.208 61.4C388.613 61.4 389.029 61.432 389.456 61.496C389.893 61.5493 390.267 61.624 390.576 61.72L390.336 62.904C390.251 62.8613 390.133 62.8187 389.984 62.776C389.835 62.7227 389.664 62.68 389.472 62.648C389.28 62.6053 389.072 62.5733 388.848 62.552C388.635 62.5307 388.427 62.52 388.224 62.52C387.072 62.52 386.496 62.8347 386.496 63.464C386.496 63.688 386.603 63.88 386.816 64.04C387.04 64.1893 387.317 64.328 387.648 64.456C387.979 64.584 388.336 64.7173 388.72 64.856C389.104 64.984 389.461 65.144 389.792 65.336C390.123 65.528 390.395 65.7627 390.608 66.04C390.832 66.3067 390.944 66.648 390.944 67.064C390.944 67.736 390.683 68.2587 390.16 68.632C389.637 68.9947 388.811 69.176 387.68 69.176C387.168 69.176 386.699 69.1333 386.272 69.048C385.845 68.9627 385.44 68.8347 385.056 68.664L385.312 67.464C385.685 67.6347 386.075 67.7787 386.48 67.896C386.896 68.0027 387.339 68.056 387.808 68.056C389.013 68.056 389.616 67.752 389.616 67.144ZM392.784 65.304C392.784 64.632 392.891 64.0507 393.104 63.56C393.317 63.0693 393.611 62.664 393.984 62.344C394.357 62.024 394.789 61.7893 395.28 61.64C395.781 61.48 396.315 61.4 396.88 61.4C397.243 61.4 397.6 61.4267 397.952 61.48C398.315 61.5227 398.699 61.608 399.104 61.736L398.8 62.872C398.448 62.744 398.123 62.664 397.824 62.632C397.536 62.5893 397.243 62.568 396.944 62.568C396.56 62.568 396.197 62.6213 395.856 62.728C395.515 62.824 395.216 62.984 394.96 63.208C394.715 63.4213 394.517 63.704 394.368 64.056C394.219 64.3973 394.144 64.8133 394.144 65.304C394.144 65.7733 394.213 66.1787 394.352 66.52C394.491 66.8507 394.683 67.128 394.928 67.352C395.184 67.5653 395.488 67.7253 395.84 67.832C396.192 67.9387 396.581 67.992 397.008 67.992C397.349 67.992 397.675 67.976 397.984 67.944C398.304 67.9013 398.651 67.816 399.024 67.688L399.216 68.792C398.843 68.9307 398.464 69.0267 398.08 69.08C397.696 69.144 397.28 69.176 396.832 69.176C396.235 69.176 395.685 69.096 395.184 68.936C394.693 68.7653 394.267 68.52 393.904 68.2C393.552 67.88 393.275 67.48 393.072 67C392.88 66.5093 392.784 65.944 392.784 65.304ZM403.344 60.424C403.067 60.424 402.827 60.328 402.624 60.136C402.421 59.944 402.32 59.6827 402.32 59.352C402.32 59.0213 402.421 58.76 402.624 58.568C402.827 58.376 403.067 58.28 403.344 58.28C403.632 58.28 403.872 58.376 404.064 58.568C404.267 58.76 404.368 59.0213 404.368 59.352C404.368 59.6827 404.267 59.944 404.064 60.136C403.872 60.328 403.632 60.424 403.344 60.424ZM403.008 62.68H400.864V61.576H404.32V66.136C404.32 66.872 404.421 67.368 404.624 67.624C404.827 67.8693 405.131 67.992 405.536 67.992C405.845 67.992 406.128 67.9547 406.384 67.88C406.651 67.8053 406.859 67.7253 407.008 67.64L407.2 68.76C407.136 68.792 407.045 68.8347 406.928 68.888C406.811 68.9307 406.672 68.9733 406.512 69.016C406.363 69.0587 406.192 69.096 406 69.128C405.819 69.16 405.627 69.176 405.424 69.176C404.955 69.176 404.565 69.112 404.256 68.984C403.947 68.856 403.696 68.664 403.504 68.408C403.323 68.152 403.195 67.8373 403.12 67.464C403.045 67.08 403.008 66.6373 403.008 66.136V62.68ZM411.344 60.424C411.067 60.424 410.827 60.328 410.624 60.136C410.421 59.944 410.32 59.6827 410.32 59.352C410.32 59.0213 410.421 58.76 410.624 58.568C410.827 58.376 411.067 58.28 411.344 58.28C411.632 58.28 411.872 58.376 412.064 58.568C412.267 58.76 412.368 59.0213 412.368 59.352C412.368 59.6827 412.267 59.944 412.064 60.136C411.872 60.328 411.632 60.424 411.344 60.424ZM411.008 62.68H408.864V61.576H412.32V66.136C412.32 66.872 412.421 67.368 412.624 67.624C412.827 67.8693 413.131 67.992 413.536 67.992C413.845 67.992 414.128 67.9547 414.384 67.88C414.651 67.8053 414.859 67.7253 415.008 67.64L415.2 68.76C415.136 68.792 415.045 68.8347 414.928 68.888C414.811 68.9307 414.672 68.9733 414.512 69.016C414.363 69.0587 414.192 69.096 414 69.128C413.819 69.16 413.627 69.176 413.424 69.176C412.955 69.176 412.565 69.112 412.256 68.984C411.947 68.856 411.696 68.664 411.504 68.408C411.323 68.152 411.195 67.8373 411.12 67.464C411.045 67.08 411.008 66.6373 411.008 66.136V62.68ZM418.288 57.816H422.112V58.856H419.536V70.6H422.112V71.64H418.288V57.816ZM426.48 69C426.533 68.2427 426.667 67.4427 426.88 66.6C427.104 65.7467 427.371 64.9253 427.68 64.136C427.989 63.336 428.331 62.6 428.704 61.928C429.077 61.2453 429.445 60.6853 429.808 60.248H425.008V59.096H431.28V60.2C430.96 60.5733 430.613 61.0747 430.24 61.704C429.867 62.3333 429.509 63.0427 429.168 63.832C428.837 64.6107 428.549 65.448 428.304 66.344C428.059 67.2293 427.904 68.1147 427.84 69H426.48ZM437.184 67.976C437.184 68.296 437.077 68.5787 436.864 68.824C436.651 69.0693 436.368 69.192 436.016 69.192C435.653 69.192 435.365 69.0693 435.152 68.824C434.939 68.5787 434.832 68.296 434.832 67.976C434.832 67.6453 434.939 67.3573 435.152 67.112C435.365 66.8667 435.653 66.744 436.016 66.744C436.368 66.744 436.651 66.8667 436.864 67.112C437.077 67.3573 437.184 67.6453 437.184 67.976ZM437.184 62.808C437.184 63.128 437.077 63.4107 436.864 63.656C436.651 63.9013 436.368 64.024 436.016 64.024C435.653 64.024 435.365 63.9013 435.152 63.656C434.939 63.4107 434.832 63.128 434.832 62.808C434.832 62.4773 434.939 62.1893 435.152 61.944C435.365 61.6987 435.653 61.576 436.016 61.576C436.368 61.576 436.651 61.6987 436.864 61.944C437.077 62.1893 437.184 62.4773 437.184 62.808ZM444.928 63.864C444.928 64.1413 444.843 64.3813 444.672 64.584C444.512 64.7867 444.299 64.888 444.032 64.888C443.755 64.888 443.531 64.7867 443.36 64.584C443.189 64.3813 443.104 64.1413 443.104 63.864C443.104 63.5867 443.189 63.3413 443.36 63.128C443.531 62.9147 443.755 62.808 444.032 62.808C444.299 62.808 444.512 62.9147 444.672 63.128C444.843 63.3413 444.928 63.5867 444.928 63.864ZM440.736 64.04C440.736 62.376 441.019 61.1013 441.584 60.216C442.16 59.32 442.965 58.872 444 58.872C445.045 58.872 445.851 59.32 446.416 60.216C446.981 61.1013 447.264 62.376 447.264 64.04C447.264 65.704 446.981 66.984 446.416 67.88C445.851 68.7653 445.045 69.208 444 69.208C442.965 69.208 442.16 68.7653 441.584 67.88C441.019 66.984 440.736 65.704 440.736 64.04ZM445.92 64.04C445.92 63.496 445.888 62.984 445.824 62.504C445.76 62.0133 445.653 61.5867 445.504 61.224C445.355 60.8613 445.157 60.5733 444.912 60.36C444.667 60.1467 444.363 60.04 444 60.04C443.637 60.04 443.333 60.1467 443.088 60.36C442.843 60.5733 442.645 60.8613 442.496 61.224C442.347 61.5867 442.24 62.0133 442.176 62.504C442.112 62.984 442.08 63.496 442.08 64.04C442.08 64.584 442.112 65.1013 442.176 65.592C442.24 66.072 442.347 66.4933 442.496 66.856C442.645 67.2187 442.843 67.5067 443.088 67.72C443.333 67.9333 443.637 68.04 444 68.04C444.363 68.04 444.667 67.9333 444.912 67.72C445.157 67.5067 445.355 67.2187 445.504 66.856C445.653 66.4933 445.76 66.072 445.824 65.592C445.888 65.1013 445.92 64.584 445.92 64.04ZM453.712 71.64H449.888V70.6H452.464V58.856H449.888V57.816H453.712V71.64Z" fill="black"/>
<path d="M182.072 63.288C181.773 63.0107 181.336 62.7547 180.76 62.52C180.184 62.264 179.587 62.136 178.968 62.136C178.264 62.136 177.656 62.2747 177.144 62.552C176.653 62.8293 176.248 63.2133 175.928 63.704C175.608 64.1733 175.373 64.7493 175.224 65.432C175.075 66.0933 175 66.808 175 67.576C175 69.304 175.405 70.6373 176.216 71.576C177.027 72.5147 178.083 72.984 179.384 72.984C180.045 72.984 180.6 72.952 181.048 72.888C181.517 72.824 181.859 72.76 182.072 72.696V63.288ZM182.072 53.272L184.728 52.824V74.584C184.152 74.7547 183.416 74.9253 182.52 75.096C181.624 75.2667 180.579 75.352 179.384 75.352C178.317 75.352 177.347 75.1707 176.472 74.808C175.597 74.4453 174.851 73.9333 174.232 73.272C173.613 72.5893 173.133 71.768 172.792 70.808C172.451 69.848 172.28 68.7707 172.28 67.576C172.28 66.424 172.419 65.3787 172.696 64.44C172.995 63.48 173.421 62.6587 173.976 61.976C174.531 61.2933 175.192 60.76 175.96 60.376C176.749 59.992 177.645 59.8 178.648 59.8C179.437 59.8 180.131 59.896 180.728 60.088C181.325 60.28 181.773 60.4827 182.072 60.696V53.272ZM190.424 75V60.952C192.6 60.2053 194.797 59.832 197.016 59.832C197.699 59.832 198.349 59.864 198.968 59.928C199.587 59.9707 200.269 60.0773 201.016 60.248L200.536 62.584C199.853 62.392 199.245 62.2747 198.712 62.232C198.2 62.168 197.635 62.136 197.016 62.136C195.715 62.136 194.392 62.3173 193.048 62.68V75H190.424ZM209.688 57.848C209.133 57.848 208.653 57.656 208.248 57.272C207.843 56.888 207.64 56.3653 207.64 55.704C207.64 55.0427 207.843 54.52 208.248 54.136C208.653 53.752 209.133 53.56 209.688 53.56C210.264 53.56 210.744 53.752 211.128 54.136C211.533 54.52 211.736 55.0427 211.736 55.704C211.736 56.3653 211.533 56.888 211.128 57.272C210.744 57.656 210.264 57.848 209.688 57.848ZM209.016 62.36H204.728V60.152H211.64V69.272C211.64 70.744 211.843 71.736 212.248 72.248C212.653 72.7387 213.261 72.984 214.072 72.984C214.691 72.984 215.256 72.9093 215.768 72.76C216.301 72.6107 216.717 72.4507 217.016 72.28L217.4 74.52C217.272 74.584 217.091 74.6693 216.856 74.776C216.621 74.8613 216.344 74.9467 216.024 75.032C215.725 75.1173 215.384 75.192 215 75.256C214.637 75.32 214.253 75.352 213.848 75.352C212.909 75.352 212.131 75.224 211.512 74.968C210.893 74.712 210.392 74.328 210.008 73.816C209.645 73.304 209.389 72.6747 209.24 71.928C209.091 71.16 209.016 70.2747 209.016 69.272V62.36ZM234.04 60.152C233.656 61.5387 233.219 62.904 232.728 64.248C232.237 65.5707 231.736 66.872 231.224 68.152C230.712 69.4107 230.189 70.616 229.656 71.768C229.123 72.92 228.611 73.9973 228.12 75H225.72C224.717 72.9947 223.704 70.712 222.68 68.152C221.656 65.592 220.749 62.9253 219.96 60.152H222.84C223.096 61.0907 223.384 62.0827 223.704 63.128C224.045 64.1733 224.397 65.2187 224.76 66.264C225.123 67.3093 225.485 68.3227 225.848 69.304C226.232 70.264 226.605 71.128 226.968 71.896C227.331 71.128 227.704 70.264 228.088 69.304C228.493 68.3227 228.888 67.3093 229.272 66.264C229.656 65.2187 230.019 64.1733 230.36 63.128C230.723 62.0827 231.032 61.0907 231.288 60.152H234.04ZM243.288 59.8C245.293 59.8 246.84 60.4293 247.928 61.688C249.016 62.9253 249.56 64.8133 249.56 67.352V68.28H238.936C239.043 69.816 239.544 70.9893 240.44 71.8C241.357 72.5893 242.637 72.984 244.28 72.984C245.219 72.984 246.019 72.9093 246.68 72.76C247.341 72.6107 247.843 72.4507 248.184 72.28L248.536 74.52C248.216 74.6907 247.64 74.872 246.808 75.064C245.976 75.256 245.037 75.352 243.992 75.352C242.712 75.352 241.581 75.16 240.6 74.776C239.64 74.3707 238.84 73.8267 238.2 73.144C237.56 72.4613 237.08 71.6507 236.76 70.712C236.44 69.752 236.28 68.7173 236.28 67.608C236.28 66.2853 236.483 65.1333 236.888 64.152C237.293 63.1707 237.827 62.36 238.488 61.72C239.149 61.08 239.896 60.6 240.728 60.28C241.56 59.96 242.413 59.8 243.288 59.8ZM246.872 66.136C246.872 64.8773 246.541 63.8853 245.88 63.16C245.219 62.4133 244.344 62.04 243.256 62.04C242.637 62.04 242.072 62.1573 241.56 62.392C241.069 62.6267 240.643 62.936 240.28 63.32C239.917 63.704 239.629 64.1413 239.416 64.632C239.203 65.1227 239.064 65.624 239 66.136H246.872ZM254.424 75V60.952C256.6 60.2053 258.797 59.832 261.016 59.832C261.699 59.832 262.349 59.864 262.968 59.928C263.587 59.9707 264.269 60.0773 265.016 60.248L264.536 62.584C263.853 62.392 263.245 62.2747 262.712 62.232C262.2 62.168 261.635 62.136 261.016 62.136C259.715 62.136 258.392 62.3173 257.048 62.68V75H254.424ZM275.16 73.112C275.821 73.112 276.408 73.0907 276.92 73.048C277.453 73.0053 277.891 72.952 278.232 72.888V68.472C277.891 68.3653 277.475 68.28 276.984 68.216C276.515 68.152 276.013 68.12 275.48 68.12C274.989 68.12 274.509 68.1627 274.04 68.248C273.571 68.312 273.155 68.44 272.792 68.632C272.429 68.824 272.131 69.08 271.896 69.4C271.661 69.6987 271.544 70.0827 271.544 70.552C271.544 71.512 271.864 72.184 272.504 72.568C273.165 72.9307 274.051 73.112 275.16 73.112ZM274.904 59.8C276.013 59.8 276.941 59.9387 277.688 60.216C278.456 60.4933 279.075 60.8773 279.544 61.368C280.013 61.8587 280.344 62.456 280.536 63.16C280.728 63.864 280.824 64.632 280.824 65.464V74.744C280.205 74.8507 279.384 74.9787 278.36 75.128C277.357 75.2773 276.323 75.352 275.256 75.352C274.445 75.352 273.656 75.2773 272.888 75.128C272.12 75 271.437 74.7653 270.84 74.424C270.243 74.0613 269.763 73.5707 269.4 72.952C269.037 72.3333 268.856 71.544 268.856 70.584C268.856 69.7307 269.037 69.016 269.4 68.44C269.784 67.8427 270.264 67.3627 270.84 67C271.437 66.6373 272.109 66.3813 272.856 66.232C273.624 66.0613 274.392 65.976 275.16 65.976C276.205 65.976 277.229 66.0933 278.232 66.328V65.592C278.232 65.144 278.179 64.7173 278.072 64.312C277.987 63.8853 277.805 63.5013 277.528 63.16C277.272 62.8187 276.909 62.552 276.44 62.36C275.992 62.1467 275.405 62.04 274.68 62.04C273.763 62.04 272.963 62.104 272.28 62.232C271.597 62.36 271.075 62.488 270.712 62.616L270.392 60.44C270.755 60.2693 271.352 60.12 272.184 59.992C273.037 59.864 273.944 59.8 274.904 59.8ZM294.232 71.288C294.232 70.7547 294.008 70.3173 293.56 69.976C293.133 69.6347 292.589 69.336 291.928 69.08C291.288 68.824 290.584 68.5787 289.816 68.344C289.048 68.088 288.333 67.7787 287.672 67.416C287.032 67.0533 286.488 66.6053 286.04 66.072C285.613 65.5387 285.4 64.8453 285.4 63.992C285.4 62.7973 285.88 61.8053 286.84 61.016C287.821 60.2053 289.347 59.8 291.416 59.8C292.227 59.8 293.059 59.864 293.912 59.992C294.787 60.0987 295.533 60.248 296.152 60.44L295.672 62.808C295.501 62.7227 295.267 62.6373 294.968 62.552C294.669 62.4453 294.328 62.36 293.944 62.296C293.56 62.2107 293.144 62.1467 292.696 62.104C292.269 62.0613 291.853 62.04 291.448 62.04C289.144 62.04 287.992 62.6693 287.992 63.928C287.992 64.376 288.205 64.76 288.632 65.08C289.08 65.3787 289.635 65.656 290.296 65.912C290.957 66.168 291.672 66.4347 292.44 66.712C293.208 66.968 293.923 67.288 294.584 67.672C295.245 68.056 295.789 68.5253 296.216 69.08C296.664 69.6133 296.888 70.296 296.888 71.128C296.888 72.472 296.365 73.5173 295.32 74.264C294.275 74.9893 292.621 75.352 290.36 75.352C289.336 75.352 288.397 75.2667 287.544 75.096C286.691 74.9253 285.88 74.6693 285.112 74.328L285.624 71.928C286.371 72.2693 287.149 72.5573 287.96 72.792C288.792 73.0053 289.677 73.112 290.616 73.112C293.027 73.112 294.232 72.504 294.232 71.288ZM300.568 67.608C300.568 66.264 300.781 65.1013 301.208 64.12C301.635 63.1387 302.221 62.328 302.968 61.688C303.715 61.048 304.579 60.5787 305.56 60.28C306.563 59.96 307.629 59.8 308.76 59.8C309.485 59.8 310.2 59.8533 310.904 59.96C311.629 60.0453 312.397 60.216 313.208 60.472L312.6 62.744C311.896 62.488 311.245 62.328 310.648 62.264C310.072 62.1787 309.485 62.136 308.888 62.136C308.12 62.136 307.395 62.2427 306.712 62.456C306.029 62.648 305.432 62.968 304.92 63.416C304.429 63.8427 304.035 64.408 303.736 65.112C303.437 65.7947 303.288 66.6267 303.288 67.608C303.288 68.5467 303.427 69.3573 303.704 70.04C303.981 70.7013 304.365 71.256 304.856 71.704C305.368 72.1307 305.976 72.4507 306.68 72.664C307.384 72.8773 308.163 72.984 309.016 72.984C309.699 72.984 310.349 72.952 310.968 72.888C311.608 72.8027 312.301 72.632 313.048 72.376L313.432 74.584C312.685 74.8613 311.928 75.0533 311.16 75.16C310.392 75.288 309.56 75.352 308.664 75.352C307.469 75.352 306.371 75.192 305.368 74.872C304.387 74.5307 303.533 74.04 302.808 73.4C302.104 72.76 301.549 71.96 301.144 71C300.76 70.0187 300.568 68.888 300.568 67.608ZM321.688 57.848C321.133 57.848 320.653 57.656 320.248 57.272C319.843 56.888 319.64 56.3653 319.64 55.704C319.64 55.0427 319.843 54.52 320.248 54.136C320.653 53.752 321.133 53.56 321.688 53.56C322.264 53.56 322.744 53.752 323.128 54.136C323.533 54.52 323.736 55.0427 323.736 55.704C323.736 56.3653 323.533 56.888 323.128 57.272C322.744 57.656 322.264 57.848 321.688 57.848ZM321.016 62.36H316.728V60.152H323.64V69.272C323.64 70.744 323.843 71.736 324.248 72.248C324.653 72.7387 325.261 72.984 326.072 72.984C326.691 72.984 327.256 72.9093 327.768 72.76C328.301 72.6107 328.717 72.4507 329.016 72.28L329.4 74.52C329.272 74.584 329.091 74.6693 328.856 74.776C328.621 74.8613 328.344 74.9467 328.024 75.032C327.725 75.1173 327.384 75.192 327 75.256C326.637 75.32 326.253 75.352 325.848 75.352C324.909 75.352 324.131 75.224 323.512 74.968C322.893 74.712 322.392 74.328 322.008 73.816C321.645 73.304 321.389 72.6747 321.24 71.928C321.091 71.16 321.016 70.2747 321.016 69.272V62.36ZM337.688 57.848C337.133 57.848 336.653 57.656 336.248 57.272C335.843 56.888 335.64 56.3653 335.64 55.704C335.64 55.0427 335.843 54.52 336.248 54.136C336.653 53.752 337.133 53.56 337.688 53.56C338.264 53.56 338.744 53.752 339.128 54.136C339.533 54.52 339.736 55.0427 339.736 55.704C339.736 56.3653 339.533 56.888 339.128 57.272C338.744 57.656 338.264 57.848 337.688 57.848ZM337.016 62.36H332.728V60.152H339.64V69.272C339.64 70.744 339.843 71.736 340.248 72.248C340.653 72.7387 341.261 72.984 342.072 72.984C342.691 72.984 343.256 72.9093 343.768 72.76C344.301 72.6107 344.717 72.4507 345.016 72.28L345.4 74.52C345.272 74.584 345.091 74.6693 344.856 74.776C344.621 74.8613 344.344 74.9467 344.024 75.032C343.725 75.1173 343.384 75.192 343 75.256C342.637 75.32 342.253 75.352 341.848 75.352C340.909 75.352 340.131 75.224 339.512 74.968C338.893 74.712 338.392 74.328 338.008 73.816C337.645 73.304 337.389 72.6747 337.24 71.928C337.091 71.16 337.016 70.2747 337.016 69.272V62.36Z" fill="black"/>
</svg>
