<svg width="512" height="126" viewBox="0 0 512 126" fill="none" xmlns="http://www.w3.org/2000/svg">
<path d="M47 36.7L47.1 61.5L33.6 61.8L20 62.1V64.5V67H33.8H47.5L47.2 91.5L46.9 116H258.5H470V91.5V67H484H498V64.5V62H484H470V37V12H258.5H46.9L47 36.7ZM466 64V112H258.5H51V64V16H258.5H466V64Z" fill="white"/>
<path d="M64.464 61.848C64.624 61.752 64.8533 61.656 65.152 61.56C65.4613 61.4533 65.8027 61.4 66.176 61.4C66.6773 61.4 67.1253 61.496 67.52 61.688C67.9147 61.88 68.2453 62.1467 68.512 62.488C68.7893 62.8293 68.9973 63.24 69.136 63.72C69.2853 64.1893 69.36 64.712 69.36 65.288C69.36 65.8853 69.2747 66.424 69.104 66.904C68.9333 67.384 68.6933 67.7947 68.384 68.136C68.0747 68.4667 67.7013 68.7227 67.264 68.904C66.8267 69.0853 66.3413 69.176 65.808 69.176C65.2213 69.176 64.6987 69.1333 64.24 69.048C63.7813 68.9627 63.4133 68.8773 63.136 68.792V58.136L64.464 57.912V61.848ZM64.464 67.848C64.6667 67.9013 64.8693 67.944 65.072 67.976C65.2747 67.9973 65.4667 68.008 65.648 68.008C66.384 68.008 66.96 67.784 67.376 67.336C67.792 66.8773 68 66.1947 68 65.288C68 64.904 67.9627 64.5467 67.888 64.216C67.8133 63.8747 67.696 63.5867 67.536 63.352C67.376 63.1067 67.168 62.9147 66.912 62.776C66.6667 62.6373 66.368 62.568 66.016 62.568C65.7067 62.568 65.408 62.632 65.12 62.76C64.832 62.8773 64.6133 63.0053 64.464 63.144V67.848ZM73.344 60.424C73.0667 60.424 72.8267 60.328 72.624 60.136C72.4213 59.944 72.32 59.6827 72.32 59.352C72.32 59.0213 72.4213 58.76 72.624 58.568C72.8267 58.376 73.0667 58.28 73.344 58.28C73.632 58.28 73.872 58.376 74.064 58.568C74.2667 58.76 74.368 59.0213 74.368 59.352C74.368 59.6827 74.2667 59.944 74.064 60.136C73.872 60.328 73.632 60.424 73.344 60.424ZM73.008 62.68H70.864V61.576H74.32V66.136C74.32 66.872 74.4213 67.368 74.624 67.624C74.8267 67.8693 75.1307 67.992 75.536 67.992C75.8453 67.992 76.128 67.9547 76.384 67.88C76.6507 67.8053 76.8587 67.7253 77.008 67.64L77.2 68.76C77.136 68.792 77.0453 68.8347 76.928 68.888C76.8107 68.9307 76.672 68.9733 76.512 69.016C76.3627 69.0587 76.192 69.096 76 69.128C75.8187 69.16 75.6267 69.176 75.424 69.176C74.9547 69.176 74.5653 69.112 74.256 68.984C73.9467 68.856 73.696 68.664 73.504 68.408C73.3227 68.152 73.1947 67.8373 73.12 67.464C73.0453 67.08 73.008 66.6373 73.008 66.136V62.68ZM79.136 61.784C79.616 61.6667 80.0907 61.576 80.56 61.512C81.04 61.448 81.488 61.416 81.904 61.416C82.896 61.416 83.6427 61.672 84.144 62.184C84.656 62.696 84.912 63.5173 84.912 64.648V69H83.6V64.888C83.6 64.408 83.5573 64.0187 83.472 63.72C83.3867 63.4213 83.264 63.192 83.104 63.032C82.9547 62.8613 82.768 62.744 82.544 62.68C82.3307 62.616 82.096 62.584 81.84 62.584C81.6267 62.584 81.3973 62.6 81.152 62.632C80.9173 62.6533 80.688 62.6853 80.464 62.728V69H79.136V61.784ZM88.288 57.816H92.112V58.856H89.536V70.6H92.112V71.64H88.288V57.816ZM97.392 68.04C98.2347 68.04 98.832 67.8747 99.184 67.544C99.5467 67.2027 99.728 66.7493 99.728 66.184C99.728 65.8213 99.6533 65.5173 99.504 65.272C99.3547 65.0267 99.1573 64.8293 98.912 64.68C98.6667 64.5307 98.384 64.424 98.064 64.36C97.744 64.296 97.408 64.264 97.056 64.264H96.72V63.192H97.184C97.4187 63.192 97.6587 63.1707 97.904 63.128C98.16 63.0747 98.3893 62.9893 98.592 62.872C98.8053 62.744 98.976 62.5733 99.104 62.36C99.232 62.1467 99.296 61.8747 99.296 61.544C99.296 61 99.1253 60.616 98.784 60.392C98.4533 60.1573 98.064 60.04 97.616 60.04C97.1573 60.04 96.768 60.1093 96.448 60.248C96.128 60.376 95.8613 60.5093 95.648 60.648L95.136 59.64C95.36 59.48 95.696 59.3147 96.144 59.144C96.6027 58.9627 97.1093 58.872 97.664 58.872C98.1867 58.872 98.6347 58.936 99.008 59.064C99.3813 59.192 99.6853 59.3733 99.92 59.608C100.165 59.8427 100.347 60.12 100.464 60.44C100.581 60.7493 100.64 61.0907 100.64 61.464C100.64 61.9867 100.501 62.4293 100.224 62.792C99.9573 63.1547 99.6107 63.432 99.184 63.624C99.696 63.7733 100.139 64.0667 100.512 64.504C100.885 64.9307 101.072 65.5013 101.072 66.216C101.072 66.6427 100.997 67.0427 100.848 67.416C100.709 67.7787 100.491 68.0933 100.192 68.36C99.904 68.6267 99.5253 68.8347 99.056 68.984C98.5973 69.1333 98.048 69.208 97.408 69.208C97.1627 69.208 96.9067 69.1867 96.64 69.144C96.384 69.112 96.144 69.064 95.92 69C95.696 68.9467 95.4933 68.8933 95.312 68.84C95.1413 68.776 95.0187 68.728 94.944 68.696L95.2 67.56C95.3707 67.6453 95.6427 67.7467 96.016 67.864C96.3893 67.9813 96.848 68.04 97.392 68.04ZM107.184 67.976C107.184 68.296 107.077 68.5787 106.864 68.824C106.651 69.0693 106.368 69.192 106.016 69.192C105.653 69.192 105.365 69.0693 105.152 68.824C104.939 68.5787 104.832 68.296 104.832 67.976C104.832 67.6453 104.939 67.3573 105.152 67.112C105.365 66.8667 105.653 66.744 106.016 66.744C106.368 66.744 106.651 66.8667 106.864 67.112C107.077 67.3573 107.184 67.6453 107.184 67.976ZM107.184 62.808C107.184 63.128 107.077 63.4107 106.864 63.656C106.651 63.9013 106.368 64.024 106.016 64.024C105.653 64.024 105.365 63.9013 105.152 63.656C104.939 63.4107 104.832 63.128 104.832 62.808C104.832 62.4773 104.939 62.1893 105.152 61.944C105.365 61.6987 105.653 61.576 106.016 61.576C106.368 61.576 106.651 61.6987 106.864 61.944C107.077 62.1893 107.184 62.4773 107.184 62.808ZM114.928 63.864C114.928 64.1413 114.843 64.3813 114.672 64.584C114.512 64.7867 114.299 64.888 114.032 64.888C113.755 64.888 113.531 64.7867 113.36 64.584C113.189 64.3813 113.104 64.1413 113.104 63.864C113.104 63.5867 113.189 63.3413 113.36 63.128C113.531 62.9147 113.755 62.808 114.032 62.808C114.299 62.808 114.512 62.9147 114.672 63.128C114.843 63.3413 114.928 63.5867 114.928 63.864ZM110.736 64.04C110.736 62.376 111.019 61.1013 111.584 60.216C112.16 59.32 112.965 58.872 114 58.872C115.045 58.872 115.851 59.32 116.416 60.216C116.981 61.1013 117.264 62.376 117.264 64.04C117.264 65.704 116.981 66.984 116.416 67.88C115.851 68.7653 115.045 69.208 114 69.208C112.965 69.208 112.16 68.7653 111.584 67.88C111.019 66.984 110.736 65.704 110.736 64.04ZM115.92 64.04C115.92 63.496 115.888 62.984 115.824 62.504C115.76 62.0133 115.653 61.5867 115.504 61.224C115.355 60.8613 115.157 60.5733 114.912 60.36C114.667 60.1467 114.363 60.04 114 60.04C113.637 60.04 113.333 60.1467 113.088 60.36C112.843 60.5733 112.645 60.8613 112.496 61.224C112.347 61.5867 112.24 62.0133 112.176 62.504C112.112 62.984 112.08 63.496 112.08 64.04C112.08 64.584 112.112 65.1013 112.176 65.592C112.24 66.072 112.347 66.4933 112.496 66.856C112.645 67.2187 112.843 67.5067 113.088 67.72C113.333 67.9333 113.637 68.04 114 68.04C114.363 68.04 114.667 67.9333 114.912 67.72C115.157 67.5067 115.355 67.2187 115.504 66.856C115.653 66.4933 115.76 66.072 115.824 65.592C115.888 65.1013 115.92 64.584 115.92 64.04ZM123.712 71.64H119.888V70.6H122.464V58.856H119.888V57.816H123.712V71.64Z" fill="white"/>
<path d="M393.136 69V58.136L394.464 57.912V61.688C394.677 61.6027 394.917 61.5387 395.184 61.496C395.451 61.4427 395.712 61.416 395.968 61.416C396.533 61.416 397.003 61.5013 397.376 61.672C397.76 61.832 398.064 62.0613 398.288 62.36C398.512 62.6587 398.672 63.016 398.768 63.432C398.864 63.848 398.912 64.3067 398.912 64.808V69H397.6V65.096C397.6 64.1787 397.472 63.5333 397.216 63.16C396.96 62.776 396.501 62.584 395.84 62.584C395.563 62.584 395.291 62.616 395.024 62.68C394.768 62.7333 394.581 62.7867 394.464 62.84V69H393.136ZM404.144 61.4C405.147 61.4 405.92 61.7147 406.464 62.344C407.008 62.9627 407.28 63.9067 407.28 65.176V65.64H401.968C402.021 66.408 402.272 66.9947 402.72 67.4C403.179 67.7947 403.819 67.992 404.64 67.992C405.109 67.992 405.509 67.9547 405.84 67.88C406.171 67.8053 406.421 67.7253 406.592 67.64L406.768 68.76C406.608 68.8453 406.32 68.936 405.904 69.032C405.488 69.128 405.019 69.176 404.496 69.176C403.856 69.176 403.291 69.08 402.8 68.888C402.32 68.6853 401.92 68.4133 401.6 68.072C401.28 67.7307 401.04 67.3253 400.88 66.856C400.72 66.376 400.64 65.8587 400.64 65.304C400.64 64.6427 400.741 64.0667 400.944 63.576C401.147 63.0853 401.413 62.68 401.744 62.36C402.075 62.04 402.448 61.8 402.864 61.64C403.28 61.48 403.707 61.4 404.144 61.4ZM405.936 64.568C405.936 63.9387 405.771 63.4427 405.44 63.08C405.109 62.7067 404.672 62.52 404.128 62.52C403.819 62.52 403.536 62.5787 403.28 62.696C403.035 62.8133 402.821 62.968 402.64 63.16C402.459 63.352 402.315 63.5707 402.208 63.816C402.101 64.0613 402.032 64.312 402 64.568H405.936ZM414.08 69C413.973 68.7867 413.84 68.552 413.68 68.296C413.531 68.04 413.365 67.7787 413.184 67.512C413.003 67.2347 412.811 66.9627 412.608 66.696C412.416 66.4293 412.224 66.1787 412.032 65.944C411.84 66.1893 411.637 66.4453 411.424 66.712C411.211 66.9787 411.003 67.2507 410.8 67.528C410.608 67.7947 410.427 68.056 410.256 68.312C410.085 68.568 409.941 68.7973 409.824 69H408.464C408.816 68.36 409.243 67.704 409.744 67.032C410.256 66.3493 410.757 65.704 411.248 65.096L408.576 61.576H410.064L412.064 64.168L413.904 61.576H415.312L412.864 65.016C413.344 65.6453 413.824 66.3013 414.304 66.984C414.795 67.6667 415.211 68.3387 415.552 69H414.08ZM418.288 57.816H422.112V58.856H419.536V70.6H422.112V71.64H418.288V57.816ZM424.864 65.032C424.864 64.072 424.992 63.224 425.248 62.488C425.515 61.7413 425.888 61.1173 426.368 60.616C426.859 60.1147 427.451 59.7307 428.144 59.464C428.837 59.1973 429.621 59.0587 430.496 59.048L430.608 60.168C430.043 60.1787 429.525 60.2427 429.056 60.36C428.597 60.4667 428.187 60.648 427.824 60.904C427.461 61.1493 427.157 61.4693 426.912 61.864C426.667 62.2587 426.48 62.744 426.352 63.32C426.608 63.2027 426.885 63.1067 427.184 63.032C427.493 62.9573 427.819 62.92 428.16 62.92C428.715 62.92 429.184 63.0053 429.568 63.176C429.963 63.3467 430.277 63.576 430.512 63.864C430.747 64.1413 430.917 64.4667 431.024 64.84C431.131 65.2133 431.184 65.5973 431.184 65.992C431.184 66.3547 431.125 66.728 431.008 67.112C430.891 67.4853 430.709 67.832 430.464 68.152C430.219 68.4613 429.904 68.7173 429.52 68.92C429.136 69.112 428.677 69.208 428.144 69.208C427.045 69.208 426.224 68.84 425.68 68.104C425.136 67.368 424.864 66.344 424.864 65.032ZM428.016 64.008C427.675 64.008 427.36 64.04 427.072 64.104C426.795 64.168 426.512 64.264 426.224 64.392C426.213 64.4987 426.208 64.6053 426.208 64.712C426.208 64.808 426.208 64.9147 426.208 65.032C426.208 65.448 426.235 65.8427 426.288 66.216C426.352 66.5787 426.453 66.904 426.592 67.192C426.741 67.4693 426.939 67.6933 427.184 67.864C427.429 68.024 427.744 68.104 428.128 68.104C428.448 68.104 428.715 68.04 428.928 67.912C429.141 67.7733 429.317 67.6027 429.456 67.4C429.595 67.1973 429.691 66.9733 429.744 66.728C429.808 66.472 429.84 66.232 429.84 66.008C429.84 65.3573 429.691 64.8613 429.392 64.52C429.104 64.1787 428.645 64.008 428.016 64.008ZM437.184 67.976C437.184 68.296 437.077 68.5787 436.864 68.824C436.651 69.0693 436.368 69.192 436.016 69.192C435.653 69.192 435.365 69.0693 435.152 68.824C434.939 68.5787 434.832 68.296 434.832 67.976C434.832 67.6453 434.939 67.3573 435.152 67.112C435.365 66.8667 435.653 66.744 436.016 66.744C436.368 66.744 436.651 66.8667 436.864 67.112C437.077 67.3573 437.184 67.6453 437.184 67.976ZM437.184 62.808C437.184 63.128 437.077 63.4107 436.864 63.656C436.651 63.9013 436.368 64.024 436.016 64.024C435.653 64.024 435.365 63.9013 435.152 63.656C434.939 63.4107 434.832 63.128 434.832 62.808C434.832 62.4773 434.939 62.1893 435.152 61.944C435.365 61.6987 435.653 61.576 436.016 61.576C436.368 61.576 436.651 61.6987 436.864 61.944C437.077 62.1893 437.184 62.4773 437.184 62.808ZM444.928 63.864C444.928 64.1413 444.843 64.3813 444.672 64.584C444.512 64.7867 444.299 64.888 444.032 64.888C443.755 64.888 443.531 64.7867 443.36 64.584C443.189 64.3813 443.104 64.1413 443.104 63.864C443.104 63.5867 443.189 63.3413 443.36 63.128C443.531 62.9147 443.755 62.808 444.032 62.808C444.299 62.808 444.512 62.9147 444.672 63.128C444.843 63.3413 444.928 63.5867 444.928 63.864ZM440.736 64.04C440.736 62.376 441.019 61.1013 441.584 60.216C442.16 59.32 442.965 58.872 444 58.872C445.045 58.872 445.851 59.32 446.416 60.216C446.981 61.1013 447.264 62.376 447.264 64.04C447.264 65.704 446.981 66.984 446.416 67.88C445.851 68.7653 445.045 69.208 444 69.208C442.965 69.208 442.16 68.7653 441.584 67.88C441.019 66.984 440.736 65.704 440.736 64.04ZM445.92 64.04C445.92 63.496 445.888 62.984 445.824 62.504C445.76 62.0133 445.653 61.5867 445.504 61.224C445.355 60.8613 445.157 60.5733 444.912 60.36C444.667 60.1467 444.363 60.04 444 60.04C443.637 60.04 443.333 60.1467 443.088 60.36C442.843 60.5733 442.645 60.8613 442.496 61.224C442.347 61.5867 442.24 62.0133 442.176 62.504C442.112 62.984 442.08 63.496 442.08 64.04C442.08 64.584 442.112 65.1013 442.176 65.592C442.24 66.072 442.347 66.4933 442.496 66.856C442.645 67.2187 442.843 67.5067 443.088 67.72C443.333 67.9333 443.637 68.04 444 68.04C444.363 68.04 444.667 67.9333 444.912 67.72C445.157 67.5067 445.355 67.2187 445.504 66.856C445.653 66.4933 445.76 66.072 445.824 65.592C445.888 65.1013 445.92 64.584 445.92 64.04ZM453.712 71.64H449.888V70.6H452.464V58.856H449.888V57.816H453.712V71.64Z" fill="white"/>
<path d="M190.072 62.288C189.773 62.0107 189.336 61.7547 188.76 61.52C188.184 61.264 187.587 61.136 186.968 61.136C186.264 61.136 185.656 61.2747 185.144 61.552C184.653 61.8293 184.248 62.2133 183.928 62.704C183.608 63.1733 183.373 63.7493 183.224 64.432C183.075 65.0933 183 65.808 183 66.576C183 68.304 183.405 69.6373 184.216 70.576C185.027 71.5147 186.083 71.984 187.384 71.984C188.045 71.984 188.6 71.952 189.048 71.888C189.517 71.824 189.859 71.76 190.072 71.696V62.288ZM190.072 52.272L192.728 51.824V73.584C192.152 73.7547 191.416 73.9253 190.52 74.096C189.624 74.2667 188.579 74.352 187.384 74.352C186.317 74.352 185.347 74.1707 184.472 73.808C183.597 73.4453 182.851 72.9333 182.232 72.272C181.613 71.5893 181.133 70.768 180.792 69.808C180.451 68.848 180.28 67.7707 180.28 66.576C180.28 65.424 180.419 64.3787 180.696 63.44C180.995 62.48 181.421 61.6587 181.976 60.976C182.531 60.2933 183.192 59.76 183.96 59.376C184.749 58.992 185.645 58.8 186.648 58.8C187.437 58.8 188.131 58.896 188.728 59.088C189.325 59.28 189.773 59.4827 190.072 59.696V52.272ZM198.424 74V59.952C200.6 59.2053 202.797 58.832 205.016 58.832C205.699 58.832 206.349 58.864 206.968 58.928C207.587 58.9707 208.269 59.0773 209.016 59.248L208.536 61.584C207.853 61.392 207.245 61.2747 206.712 61.232C206.2 61.168 205.635 61.136 205.016 61.136C203.715 61.136 202.392 61.3173 201.048 61.68V74H198.424ZM217.688 56.848C217.133 56.848 216.653 56.656 216.248 56.272C215.843 55.888 215.64 55.3653 215.64 54.704C215.64 54.0427 215.843 53.52 216.248 53.136C216.653 52.752 217.133 52.56 217.688 52.56C218.264 52.56 218.744 52.752 219.128 53.136C219.533 53.52 219.736 54.0427 219.736 54.704C219.736 55.3653 219.533 55.888 219.128 56.272C218.744 56.656 218.264 56.848 217.688 56.848ZM217.016 61.36H212.728V59.152H219.64V68.272C219.64 69.744 219.843 70.736 220.248 71.248C220.653 71.7387 221.261 71.984 222.072 71.984C222.691 71.984 223.256 71.9093 223.768 71.76C224.301 71.6107 224.717 71.4507 225.016 71.28L225.4 73.52C225.272 73.584 225.091 73.6693 224.856 73.776C224.621 73.8613 224.344 73.9467 224.024 74.032C223.725 74.1173 223.384 74.192 223 74.256C222.637 74.32 222.253 74.352 221.848 74.352C220.909 74.352 220.131 74.224 219.512 73.968C218.893 73.712 218.392 73.328 218.008 72.816C217.645 72.304 217.389 71.6747 217.24 70.928C217.091 70.16 217.016 69.2747 217.016 68.272V61.36ZM242.04 59.152C241.656 60.5387 241.219 61.904 240.728 63.248C240.237 64.5707 239.736 65.872 239.224 67.152C238.712 68.4107 238.189 69.616 237.656 70.768C237.123 71.92 236.611 72.9973 236.12 74H233.72C232.717 71.9947 231.704 69.712 230.68 67.152C229.656 64.592 228.749 61.9253 227.96 59.152H230.84C231.096 60.0907 231.384 61.0827 231.704 62.128C232.045 63.1733 232.397 64.2187 232.76 65.264C233.123 66.3093 233.485 67.3227 233.848 68.304C234.232 69.264 234.605 70.128 234.968 70.896C235.331 70.128 235.704 69.264 236.088 68.304C236.493 67.3227 236.888 66.3093 237.272 65.264C237.656 64.2187 238.019 63.1733 238.36 62.128C238.723 61.0827 239.032 60.0907 239.288 59.152H242.04ZM251.288 58.8C253.293 58.8 254.84 59.4293 255.928 60.688C257.016 61.9253 257.56 63.8133 257.56 66.352V67.28H246.936C247.043 68.816 247.544 69.9893 248.44 70.8C249.357 71.5893 250.637 71.984 252.28 71.984C253.219 71.984 254.019 71.9093 254.68 71.76C255.341 71.6107 255.843 71.4507 256.184 71.28L256.536 73.52C256.216 73.6907 255.64 73.872 254.808 74.064C253.976 74.256 253.037 74.352 251.992 74.352C250.712 74.352 249.581 74.16 248.6 73.776C247.64 73.3707 246.84 72.8267 246.2 72.144C245.56 71.4613 245.08 70.6507 244.76 69.712C244.44 68.752 244.28 67.7173 244.28 66.608C244.28 65.2853 244.483 64.1333 244.888 63.152C245.293 62.1707 245.827 61.36 246.488 60.72C247.149 60.08 247.896 59.6 248.728 59.28C249.56 58.96 250.413 58.8 251.288 58.8ZM254.872 65.136C254.872 63.8773 254.541 62.8853 253.88 62.16C253.219 61.4133 252.344 61.04 251.256 61.04C250.637 61.04 250.072 61.1573 249.56 61.392C249.069 61.6267 248.643 61.936 248.28 62.32C247.917 62.704 247.629 63.1413 247.416 63.632C247.203 64.1227 247.064 64.624 247 65.136H254.872ZM262.424 74V59.952C264.6 59.2053 266.797 58.832 269.016 58.832C269.699 58.832 270.349 58.864 270.968 58.928C271.587 58.9707 272.269 59.0773 273.016 59.248L272.536 61.584C271.853 61.392 271.245 61.2747 270.712 61.232C270.2 61.168 269.635 61.136 269.016 61.136C267.715 61.136 266.392 61.3173 265.048 61.68V74H262.424ZM279.96 74C280.067 72.4853 280.333 70.8853 280.76 69.2C281.208 67.4933 281.741 65.8507 282.36 64.272C282.979 62.672 283.661 61.2 284.408 59.856C285.155 58.4907 285.891 57.3707 286.616 56.496H277.016V54.192H289.56V56.4C288.92 57.1467 288.227 58.1493 287.48 59.408C286.733 60.6667 286.019 62.0853 285.336 63.664C284.675 65.2213 284.099 66.896 283.608 68.688C283.117 70.4587 282.808 72.2293 282.68 74H279.96ZM302.232 70.288C302.232 69.7547 302.008 69.3173 301.56 68.976C301.133 68.6347 300.589 68.336 299.928 68.08C299.288 67.824 298.584 67.5787 297.816 67.344C297.048 67.088 296.333 66.7787 295.672 66.416C295.032 66.0533 294.488 65.6053 294.04 65.072C293.613 64.5387 293.4 63.8453 293.4 62.992C293.4 61.7973 293.88 60.8053 294.84 60.016C295.821 59.2053 297.347 58.8 299.416 58.8C300.227 58.8 301.059 58.864 301.912 58.992C302.787 59.0987 303.533 59.248 304.152 59.44L303.672 61.808C303.501 61.7227 303.267 61.6373 302.968 61.552C302.669 61.4453 302.328 61.36 301.944 61.296C301.56 61.2107 301.144 61.1467 300.696 61.104C300.269 61.0613 299.853 61.04 299.448 61.04C297.144 61.04 295.992 61.6693 295.992 62.928C295.992 63.376 296.205 63.76 296.632 64.08C297.08 64.3787 297.635 64.656 298.296 64.912C298.957 65.168 299.672 65.4347 300.44 65.712C301.208 65.968 301.923 66.288 302.584 66.672C303.245 67.056 303.789 67.5253 304.216 68.08C304.664 68.6133 304.888 69.296 304.888 70.128C304.888 71.472 304.365 72.5173 303.32 73.264C302.275 73.9893 300.621 74.352 298.36 74.352C297.336 74.352 296.397 74.2667 295.544 74.096C294.691 73.9253 293.88 73.6693 293.112 73.328L293.624 70.928C294.371 71.2693 295.149 71.5573 295.96 71.792C296.792 72.0053 297.677 72.112 298.616 72.112C301.027 72.112 302.232 71.504 302.232 70.288ZM315.288 58.8C317.293 58.8 318.84 59.4293 319.928 60.688C321.016 61.9253 321.56 63.8133 321.56 66.352V67.28H310.936C311.043 68.816 311.544 69.9893 312.44 70.8C313.357 71.5893 314.637 71.984 316.28 71.984C317.219 71.984 318.019 71.9093 318.68 71.76C319.341 71.6107 319.843 71.4507 320.184 71.28L320.536 73.52C320.216 73.6907 319.64 73.872 318.808 74.064C317.976 74.256 317.037 74.352 315.992 74.352C314.712 74.352 313.581 74.16 312.6 73.776C311.64 73.3707 310.84 72.8267 310.2 72.144C309.56 71.4613 309.08 70.6507 308.76 69.712C308.44 68.752 308.28 67.7173 308.28 66.608C308.28 65.2853 308.483 64.1333 308.888 63.152C309.293 62.1707 309.827 61.36 310.488 60.72C311.149 60.08 311.896 59.6 312.728 59.28C313.56 58.96 314.413 58.8 315.288 58.8ZM318.872 65.136C318.872 63.8773 318.541 62.8853 317.88 62.16C317.219 61.4133 316.344 61.04 315.256 61.04C314.637 61.04 314.072 61.1573 313.56 61.392C313.069 61.6267 312.643 61.936 312.28 62.32C311.917 62.704 311.629 63.1413 311.416 63.632C311.203 64.1227 311.064 64.624 311 65.136H318.872ZM334.072 72.624C333.773 72.7947 333.315 72.976 332.696 73.168C332.077 73.36 331.363 73.456 330.552 73.456C329.677 73.456 328.856 73.3173 328.088 73.04C327.341 72.7413 326.68 72.304 326.104 71.728C325.549 71.1307 325.101 70.384 324.76 69.488C324.44 68.5707 324.28 67.4933 324.28 66.256C324.28 65.168 324.429 64.176 324.728 63.28C325.048 62.3627 325.496 61.5733 326.072 60.912C326.669 60.2507 327.395 59.7387 328.248 59.376C329.101 58.992 330.072 58.8 331.16 58.8C332.44 58.8 333.528 58.896 334.424 59.088C335.341 59.2587 336.109 59.4293 336.728 59.6V72.848C336.728 75.152 336.141 76.816 334.968 77.84C333.816 78.864 332.067 79.376 329.72 79.376C328.76 79.376 327.885 79.3013 327.096 79.152C326.328 79.0027 325.645 78.8213 325.048 78.608L325.528 76.272C326.083 76.5067 326.712 76.6987 327.416 76.848C328.141 76.9973 328.931 77.072 329.784 77.072C331.32 77.072 332.419 76.7627 333.08 76.144C333.741 75.5253 334.072 74.5227 334.072 73.136V72.624ZM334.072 61.488C333.816 61.4027 333.464 61.328 333.016 61.264C332.568 61.1787 331.96 61.136 331.192 61.136C329.827 61.136 328.781 61.6053 328.056 62.544C327.352 63.4827 327 64.7307 327 66.288C327 67.1413 327.096 67.8773 327.288 68.496C327.501 69.0933 327.779 69.5947 328.12 70C328.483 70.384 328.888 70.672 329.336 70.864C329.784 71.0347 330.264 71.12 330.776 71.12C331.437 71.12 332.056 71.024 332.632 70.832C333.229 70.64 333.709 70.416 334.072 70.16V61.488Z" fill="white"/>
</svg>
