<svg width="469" height="161" viewBox="0 0 469 161" fill="none" xmlns="http://www.w3.org/2000/svg">
<g clip-path="url(#clip0_1051_2)">
<path d="M114 0V163M130 163V0M147 0V163M163 163V0M179 0V163M196 163V0M212 0V163M228 163V0M244 0V163M261 163V0M277 0V163M293 163V0M309 0V163M326 163V0M342 0V163M358 163V0M374 0V163M390 163V0M407 0V163M423 163V0M439 0V163M455 163V0" stroke="#A6A6A6" stroke-width="0.5" stroke-linecap="round" stroke-linejoin="round"/>
<path d="M96 26H113L115 10H129L131 26H146L148 10H162L164 26H178L180 10H195L197 26H211L213 10H227L229 26H243L245 10H260L262 26H276L278 10H292L294 26H308L310 10H325L327 26H341L343 10H357L359 26H373L375 10H389L391 26H406L408 10H422L424 26H438L440 10H454L456 26H469M469 10H456L454 26H440L438 10H424L422 26H408L406 10H391L389 26H375L373 10H359L357 26H343L341 10H327L325 26H310L308 10H294L292 26H278L276 10H262L260 26H245L243 10H229L227 26H213L211 10H197L195 26H180L178 10H164L162 26H148L146 10H131L129 26H115L113 10H96" stroke="black" stroke-linecap="round" stroke-linejoin="round"/>
<path d="M96 59H178L179 42H211L212 59H341L342 42H469" stroke="black" stroke-linecap="round" stroke-linejoin="round"/>
<path d="M96 92H146L147 75H162L163 92H276L277 75H341L342 92H406L407 75H469" stroke="black" stroke-linecap="round" stroke-linejoin="round"/>
<path d="M96 107H113L114 124H162L163 107H178L179 124H243L244 107H276L277 124H308L309 107H341L342 124H373L374 107H406L407 124H438L439 107H469" stroke="black" stroke-linecap="round" stroke-linejoin="round"/>
<path d="M96 157H113L114 139H129L130 157H146L147 139H178L179 157H195L196 139H211L212 157H227L228 139H243L244 157H260L261 139H276L277 157H292L293 139H308L309 157H325L326 139H341L342 157H357L358 139H373L374 157H389L390 139H406L407 157H422L423 139H438L439 157H454L455 139H469" stroke="black" stroke-linecap="round" stroke-linejoin="round"/>
<path d="M106.538 15.776C106.538 16.112 106.468 16.4387 106.328 16.756C106.197 17.064 106.02 17.372 105.796 17.68C105.572 17.9787 105.32 18.2773 105.04 18.576C104.76 18.8653 104.48 19.15 104.2 19.43C104.041 19.5887 103.855 19.7753 103.64 19.99C103.435 20.2047 103.239 20.4287 103.052 20.662C102.865 20.8953 102.707 21.1193 102.576 21.334C102.455 21.5487 102.394 21.7353 102.394 21.894H106.86V23H100.98C100.971 22.944 100.966 22.888 100.966 22.832C100.966 22.776 100.966 22.7247 100.966 22.678C100.966 22.2393 101.036 21.8333 101.176 21.46C101.325 21.0773 101.517 20.718 101.75 20.382C101.983 20.046 102.245 19.7287 102.534 19.43C102.823 19.1313 103.108 18.842 103.388 18.562C103.621 18.338 103.841 18.1187 104.046 17.904C104.261 17.68 104.447 17.4607 104.606 17.246C104.774 17.022 104.905 16.7933 104.998 16.56C105.101 16.3267 105.152 16.0793 105.152 15.818C105.152 15.538 105.105 15.3 105.012 15.104C104.928 14.908 104.811 14.7447 104.662 14.614C104.513 14.4833 104.335 14.39 104.13 14.334C103.934 14.2687 103.724 14.236 103.5 14.236C103.229 14.236 102.982 14.2733 102.758 14.348C102.534 14.4227 102.333 14.5113 102.156 14.614C101.979 14.7073 101.829 14.81 101.708 14.922C101.587 15.0247 101.493 15.104 101.428 15.16L100.784 14.236C100.868 14.1427 100.994 14.0307 101.162 13.9C101.33 13.76 101.531 13.6293 101.764 13.508C101.997 13.3867 102.259 13.284 102.548 13.2C102.837 13.116 103.15 13.074 103.486 13.074C104.503 13.074 105.264 13.312 105.768 13.788C106.281 14.2547 106.538 14.9173 106.538 15.776Z" fill="black"/>
<path d="M119.302 15.3C119.834 15.0947 120.352 14.8333 120.856 14.516C121.36 14.1893 121.822 13.7833 122.242 13.298H123.166V23H121.864V15.104C121.752 15.2067 121.612 15.314 121.444 15.426C121.285 15.538 121.108 15.6453 120.912 15.748C120.725 15.8507 120.525 15.9487 120.31 16.042C120.105 16.1353 119.904 16.2147 119.708 16.28L119.302 15.3Z" fill="black"/>
<path d="M134.7 18.142C134.7 16.518 134.985 15.2673 135.554 14.39C136.133 13.5127 136.931 13.074 137.948 13.074C138.965 13.074 139.759 13.5127 140.328 14.39C140.907 15.2673 141.196 16.518 141.196 18.142C141.196 19.766 140.907 21.0167 140.328 21.894C139.759 22.7713 138.965 23.21 137.948 23.21C136.931 23.21 136.133 22.7713 135.554 21.894C134.985 21.0167 134.7 19.766 134.7 18.142ZM139.824 18.142C139.824 17.61 139.791 17.106 139.726 16.63C139.67 16.154 139.567 15.7387 139.418 15.384C139.278 15.0293 139.087 14.7493 138.844 14.544C138.601 14.3293 138.303 14.222 137.948 14.222C137.593 14.222 137.295 14.3293 137.052 14.544C136.809 14.7493 136.613 15.0293 136.464 15.384C136.324 15.7387 136.221 16.154 136.156 16.63C136.1 17.106 136.072 17.61 136.072 18.142C136.072 18.674 136.1 19.178 136.156 19.654C136.221 20.13 136.324 20.5453 136.464 20.9C136.613 21.2547 136.809 21.5393 137.052 21.754C137.295 21.9593 137.593 22.062 137.948 22.062C138.303 22.062 138.601 21.9593 138.844 21.754C139.087 21.5393 139.278 21.2547 139.418 20.9C139.567 20.5453 139.67 20.13 139.726 19.654C139.791 19.178 139.824 18.674 139.824 18.142Z" fill="black"/>
<path d="M153.786 17.036C155.195 17.092 156.227 17.4 156.88 17.96C157.543 18.52 157.874 19.2807 157.874 20.242C157.874 20.6713 157.799 21.068 157.65 21.432C157.51 21.796 157.291 22.1087 156.992 22.37C156.703 22.6313 156.334 22.8367 155.886 22.986C155.438 23.1353 154.906 23.21 154.29 23.21C154.047 23.21 153.8 23.1913 153.548 23.154C153.296 23.1167 153.063 23.07 152.848 23.014C152.633 22.958 152.442 22.902 152.274 22.846C152.106 22.79 151.985 22.7433 151.91 22.706L152.162 21.572C152.321 21.6467 152.577 21.7447 152.932 21.866C153.296 21.9873 153.739 22.048 154.262 22.048C154.682 22.048 155.032 22.0013 155.312 21.908C155.601 21.8147 155.835 21.6887 156.012 21.53C156.189 21.3713 156.315 21.1893 156.39 20.984C156.474 20.7693 156.516 20.5453 156.516 20.312C156.516 19.9573 156.455 19.6447 156.334 19.374C156.213 19.094 155.998 18.8607 155.69 18.674C155.382 18.4873 154.971 18.3473 154.458 18.254C153.945 18.1513 153.296 18.1 152.512 18.1C152.568 17.6427 152.61 17.2133 152.638 16.812C152.675 16.4107 152.708 16.0187 152.736 15.636C152.764 15.2533 152.787 14.8753 152.806 14.502C152.825 14.1193 152.843 13.718 152.862 13.298H157.538V14.404H153.996C153.987 14.544 153.973 14.7353 153.954 14.978C153.935 15.2113 153.917 15.4587 153.898 15.72C153.879 15.972 153.861 16.2193 153.842 16.462C153.823 16.7047 153.805 16.896 153.786 17.036Z" fill="black"/>
<path d="M170.164 22.048C170.995 22.048 171.587 21.8847 171.942 21.558C172.306 21.2313 172.488 20.7927 172.488 20.242C172.488 19.8873 172.413 19.5887 172.264 19.346C172.115 19.1033 171.919 18.912 171.676 18.772C171.433 18.6227 171.149 18.52 170.822 18.464C170.505 18.3987 170.178 18.366 169.842 18.366H169.506V17.302H169.968C170.201 17.302 170.439 17.2787 170.682 17.232C170.934 17.1853 171.163 17.1013 171.368 16.98C171.573 16.8587 171.741 16.6953 171.872 16.49C172.003 16.2753 172.068 16.0093 172.068 15.692C172.068 15.4307 172.021 15.2067 171.928 15.02C171.835 14.8333 171.709 14.6793 171.55 14.558C171.401 14.4367 171.223 14.3527 171.018 14.306C170.822 14.25 170.612 14.222 170.388 14.222C169.94 14.222 169.557 14.2873 169.24 14.418C168.932 14.5487 168.671 14.684 168.456 14.824L167.952 13.83C168.064 13.7553 168.204 13.676 168.372 13.592C168.549 13.4987 168.745 13.4147 168.96 13.34C169.175 13.2653 169.403 13.2047 169.646 13.158C169.898 13.102 170.159 13.074 170.43 13.074C170.943 13.074 171.387 13.1393 171.76 13.27C172.133 13.3913 172.441 13.5687 172.684 13.802C172.927 14.026 173.109 14.2967 173.23 14.614C173.351 14.922 173.412 15.258 173.412 15.622C173.412 16.126 173.267 16.56 172.978 16.924C172.689 17.2787 172.339 17.5493 171.928 17.736C172.18 17.8107 172.423 17.918 172.656 18.058C172.889 18.198 173.09 18.3753 173.258 18.59C173.435 18.8047 173.575 19.052 173.678 19.332C173.79 19.612 173.846 19.9247 173.846 20.27C173.846 20.69 173.771 21.082 173.622 21.446C173.482 21.8007 173.258 22.1087 172.95 22.37C172.651 22.6313 172.273 22.8367 171.816 22.986C171.359 23.1353 170.817 23.21 170.192 23.21C169.949 23.21 169.697 23.1913 169.436 23.154C169.184 23.1167 168.946 23.07 168.722 23.014C168.498 22.958 168.302 22.902 168.134 22.846C167.966 22.79 167.845 22.7433 167.77 22.706L168.022 21.572C168.181 21.6467 168.442 21.7447 168.806 21.866C169.179 21.9873 169.632 22.048 170.164 22.048Z" fill="black"/>
<path d="M191.126 20.48C191.126 20.872 191.056 21.236 190.916 21.572C190.785 21.8987 190.585 22.188 190.314 22.44C190.053 22.6827 189.721 22.8693 189.32 23C188.919 23.14 188.457 23.21 187.934 23.21C187.327 23.21 186.819 23.126 186.408 22.958C186.007 22.7807 185.685 22.5613 185.442 22.3C185.199 22.0387 185.027 21.754 184.924 21.446C184.821 21.1287 184.77 20.83 184.77 20.55C184.77 20.2793 184.812 20.0227 184.896 19.78C184.989 19.528 185.106 19.2947 185.246 19.08C185.395 18.8653 185.563 18.674 185.75 18.506C185.946 18.3287 186.151 18.1747 186.366 18.044C185.451 17.5213 184.994 16.7513 184.994 15.734C184.994 15.3793 185.064 15.0433 185.204 14.726C185.344 14.3993 185.54 14.1147 185.792 13.872C186.053 13.6293 186.366 13.438 186.73 13.298C187.094 13.1487 187.5 13.074 187.948 13.074C188.471 13.074 188.919 13.1533 189.292 13.312C189.665 13.4707 189.969 13.676 190.202 13.928C190.445 14.1707 190.617 14.4413 190.72 14.74C190.832 15.0387 190.888 15.328 190.888 15.608C190.888 15.8787 190.846 16.1353 190.762 16.378C190.687 16.6113 190.58 16.8307 190.44 17.036C190.309 17.2413 190.155 17.4233 189.978 17.582C189.81 17.7407 189.633 17.8807 189.446 18.002C190.547 18.5247 191.107 19.3507 191.126 20.48ZM186.086 20.564C186.086 20.732 186.114 20.9093 186.17 21.096C186.235 21.2733 186.343 21.4413 186.492 21.6C186.641 21.7493 186.833 21.8753 187.066 21.978C187.299 22.0807 187.593 22.132 187.948 22.132C188.265 22.132 188.541 22.0853 188.774 21.992C189.017 21.8987 189.213 21.782 189.362 21.642C189.511 21.4927 189.623 21.3247 189.698 21.138C189.773 20.9513 189.81 20.76 189.81 20.564C189.81 20.2653 189.754 20.004 189.642 19.78C189.53 19.556 189.367 19.36 189.152 19.192C188.947 19.024 188.695 18.884 188.396 18.772C188.107 18.6507 187.775 18.548 187.402 18.464C186.982 18.6973 186.655 18.9867 186.422 19.332C186.198 19.6773 186.086 20.088 186.086 20.564ZM189.586 15.594C189.586 15.454 189.553 15.3 189.488 15.132C189.432 14.964 189.339 14.81 189.208 14.67C189.077 14.5207 188.909 14.3993 188.704 14.306C188.499 14.2033 188.247 14.152 187.948 14.152C187.649 14.152 187.393 14.1987 187.178 14.292C186.973 14.3853 186.805 14.5067 186.674 14.656C186.543 14.796 186.445 14.9547 186.38 15.132C186.324 15.3 186.296 15.468 186.296 15.636C186.296 15.8413 186.333 16.0467 186.408 16.252C186.483 16.4573 186.599 16.6487 186.758 16.826C186.917 17.0033 187.122 17.162 187.374 17.302C187.635 17.442 187.943 17.554 188.298 17.638C188.69 17.4047 189.003 17.134 189.236 16.826C189.469 16.5087 189.586 16.098 189.586 15.594Z" fill="black"/>
<path d="M207.014 17.176C207.014 19.0987 206.533 20.5547 205.572 21.544C204.62 22.524 203.201 23.0187 201.316 23.028L201.274 21.936C201.862 21.936 202.389 21.88 202.856 21.768C203.332 21.656 203.747 21.4787 204.102 21.236C204.457 20.984 204.751 20.662 204.984 20.27C205.227 19.878 205.404 19.3973 205.516 18.828C205.273 18.94 204.998 19.0333 204.69 19.108C204.382 19.1733 204.065 19.206 203.738 19.206C203.187 19.206 202.721 19.1267 202.338 18.968C201.955 18.8 201.643 18.5807 201.4 18.31C201.157 18.03 200.98 17.7127 200.868 17.358C200.765 16.994 200.714 16.616 200.714 16.224C200.714 15.8787 200.775 15.5193 200.896 15.146C201.017 14.7727 201.199 14.432 201.442 14.124C201.694 13.816 202.011 13.564 202.394 13.368C202.777 13.172 203.229 13.074 203.752 13.074C204.284 13.074 204.751 13.1673 205.152 13.354C205.563 13.5407 205.903 13.8113 206.174 14.166C206.454 14.5207 206.664 14.9547 206.804 15.468C206.944 15.972 207.014 16.5413 207.014 17.176ZM203.878 18.142C204.205 18.142 204.513 18.114 204.802 18.058C205.091 17.9927 205.371 17.8993 205.642 17.778C205.651 17.6753 205.656 17.5773 205.656 17.484C205.656 17.3813 205.656 17.2787 205.656 17.176C205.656 16.7747 205.628 16.392 205.572 16.028C205.516 15.6547 205.413 15.3327 205.264 15.062C205.124 14.782 204.933 14.5627 204.69 14.404C204.447 14.236 204.139 14.152 203.766 14.152C203.458 14.152 203.197 14.2173 202.982 14.348C202.767 14.4787 202.59 14.6467 202.45 14.852C202.31 15.048 202.207 15.2673 202.142 15.51C202.086 15.7433 202.058 15.972 202.058 16.196C202.058 16.8307 202.207 17.316 202.506 17.652C202.814 17.9787 203.271 18.142 203.878 18.142Z" fill="black"/>
<path d="M216.7 18.142C216.7 16.518 216.985 15.2673 217.554 14.39C218.133 13.5127 218.931 13.074 219.948 13.074C220.965 13.074 221.759 13.5127 222.328 14.39C222.907 15.2673 223.196 16.518 223.196 18.142C223.196 19.766 222.907 21.0167 222.328 21.894C221.759 22.7713 220.965 23.21 219.948 23.21C218.931 23.21 218.133 22.7713 217.554 21.894C216.985 21.0167 216.7 19.766 216.7 18.142ZM221.824 18.142C221.824 17.61 221.791 17.106 221.726 16.63C221.67 16.154 221.567 15.7387 221.418 15.384C221.278 15.0293 221.087 14.7493 220.844 14.544C220.601 14.3293 220.303 14.222 219.948 14.222C219.593 14.222 219.295 14.3293 219.052 14.544C218.809 14.7493 218.613 15.0293 218.464 15.384C218.324 15.7387 218.221 16.154 218.156 16.63C218.1 17.106 218.072 17.61 218.072 18.142C218.072 18.674 218.1 19.178 218.156 19.654C218.221 20.13 218.324 20.5453 218.464 20.9C218.613 21.2547 218.809 21.5393 219.052 21.754C219.295 21.9593 219.593 22.062 219.948 22.062C220.303 22.062 220.601 21.9593 220.844 21.754C221.087 21.5393 221.278 21.2547 221.418 20.9C221.567 20.5453 221.67 20.13 221.726 19.654C221.791 19.178 221.824 18.674 221.824 18.142Z" fill="black"/>
<path d="M233.302 15.3C233.834 15.0947 234.352 14.8333 234.856 14.516C235.36 14.1893 235.822 13.7833 236.242 13.298H237.166V23H235.864V15.104C235.752 15.2067 235.612 15.314 235.444 15.426C235.285 15.538 235.108 15.6453 234.912 15.748C234.725 15.8507 234.525 15.9487 234.31 16.042C234.105 16.1353 233.904 16.2147 233.708 16.28L233.302 15.3Z" fill="black"/>
<path d="M254.538 15.776C254.538 16.112 254.468 16.4387 254.328 16.756C254.197 17.064 254.02 17.372 253.796 17.68C253.572 17.9787 253.32 18.2773 253.04 18.576C252.76 18.8653 252.48 19.15 252.2 19.43C252.041 19.5887 251.855 19.7753 251.64 19.99C251.435 20.2047 251.239 20.4287 251.052 20.662C250.865 20.8953 250.707 21.1193 250.576 21.334C250.455 21.5487 250.394 21.7353 250.394 21.894H254.86V23H248.98C248.971 22.944 248.966 22.888 248.966 22.832C248.966 22.776 248.966 22.7247 248.966 22.678C248.966 22.2393 249.036 21.8333 249.176 21.46C249.325 21.0773 249.517 20.718 249.75 20.382C249.983 20.046 250.245 19.7287 250.534 19.43C250.823 19.1313 251.108 18.842 251.388 18.562C251.621 18.338 251.841 18.1187 252.046 17.904C252.261 17.68 252.447 17.4607 252.606 17.246C252.774 17.022 252.905 16.7933 252.998 16.56C253.101 16.3267 253.152 16.0793 253.152 15.818C253.152 15.538 253.105 15.3 253.012 15.104C252.928 14.908 252.811 14.7447 252.662 14.614C252.513 14.4833 252.335 14.39 252.13 14.334C251.934 14.2687 251.724 14.236 251.5 14.236C251.229 14.236 250.982 14.2733 250.758 14.348C250.534 14.4227 250.333 14.5113 250.156 14.614C249.979 14.7073 249.829 14.81 249.708 14.922C249.587 15.0247 249.493 15.104 249.428 15.16L248.784 14.236C248.868 14.1427 248.994 14.0307 249.162 13.9C249.33 13.76 249.531 13.6293 249.764 13.508C249.997 13.3867 250.259 13.284 250.548 13.2C250.837 13.116 251.15 13.074 251.486 13.074C252.503 13.074 253.264 13.312 253.768 13.788C254.281 14.2547 254.538 14.9173 254.538 15.776Z" fill="black"/>
<path d="M268.164 22.048C268.995 22.048 269.587 21.8847 269.942 21.558C270.306 21.2313 270.488 20.7927 270.488 20.242C270.488 19.8873 270.413 19.5887 270.264 19.346C270.115 19.1033 269.919 18.912 269.676 18.772C269.433 18.6227 269.149 18.52 268.822 18.464C268.505 18.3987 268.178 18.366 267.842 18.366H267.506V17.302H267.968C268.201 17.302 268.439 17.2787 268.682 17.232C268.934 17.1853 269.163 17.1013 269.368 16.98C269.573 16.8587 269.741 16.6953 269.872 16.49C270.003 16.2753 270.068 16.0093 270.068 15.692C270.068 15.4307 270.021 15.2067 269.928 15.02C269.835 14.8333 269.709 14.6793 269.55 14.558C269.401 14.4367 269.223 14.3527 269.018 14.306C268.822 14.25 268.612 14.222 268.388 14.222C267.94 14.222 267.557 14.2873 267.24 14.418C266.932 14.5487 266.671 14.684 266.456 14.824L265.952 13.83C266.064 13.7553 266.204 13.676 266.372 13.592C266.549 13.4987 266.745 13.4147 266.96 13.34C267.175 13.2653 267.403 13.2047 267.646 13.158C267.898 13.102 268.159 13.074 268.43 13.074C268.943 13.074 269.387 13.1393 269.76 13.27C270.133 13.3913 270.441 13.5687 270.684 13.802C270.927 14.026 271.109 14.2967 271.23 14.614C271.351 14.922 271.412 15.258 271.412 15.622C271.412 16.126 271.267 16.56 270.978 16.924C270.689 17.2787 270.339 17.5493 269.928 17.736C270.18 17.8107 270.423 17.918 270.656 18.058C270.889 18.198 271.09 18.3753 271.258 18.59C271.435 18.8047 271.575 19.052 271.678 19.332C271.79 19.612 271.846 19.9247 271.846 20.27C271.846 20.69 271.771 21.082 271.622 21.446C271.482 21.8007 271.258 22.1087 270.95 22.37C270.651 22.6313 270.273 22.8367 269.816 22.986C269.359 23.1353 268.817 23.21 268.192 23.21C267.949 23.21 267.697 23.1913 267.436 23.154C267.184 23.1167 266.946 23.07 266.722 23.014C266.498 22.958 266.302 22.902 266.134 22.846C265.966 22.79 265.845 22.7433 265.77 22.706L266.022 21.572C266.181 21.6467 266.442 21.7447 266.806 21.866C267.179 21.9873 267.632 22.048 268.164 22.048Z" fill="black"/>
<path d="M281.56 19.64C281.737 19.2293 281.98 18.7533 282.288 18.212C282.596 17.6613 282.941 17.0967 283.324 16.518C283.716 15.9393 284.131 15.37 284.57 14.81C285.018 14.25 285.466 13.746 285.914 13.298H287.16V19.458H288.308V20.522H287.16V23H285.9V20.522H281.56V19.64ZM285.9 14.838C285.62 15.1367 285.335 15.4727 285.046 15.846C284.766 16.21 284.491 16.5927 284.22 16.994C283.949 17.3953 283.693 17.806 283.45 18.226C283.217 18.646 283.007 19.0567 282.82 19.458H285.9V14.838Z" fill="black"/>
<path d="M299.786 17.036C301.195 17.092 302.227 17.4 302.88 17.96C303.543 18.52 303.874 19.2807 303.874 20.242C303.874 20.6713 303.799 21.068 303.65 21.432C303.51 21.796 303.291 22.1087 302.992 22.37C302.703 22.6313 302.334 22.8367 301.886 22.986C301.438 23.1353 300.906 23.21 300.29 23.21C300.047 23.21 299.8 23.1913 299.548 23.154C299.296 23.1167 299.063 23.07 298.848 23.014C298.633 22.958 298.442 22.902 298.274 22.846C298.106 22.79 297.985 22.7433 297.91 22.706L298.162 21.572C298.321 21.6467 298.577 21.7447 298.932 21.866C299.296 21.9873 299.739 22.048 300.262 22.048C300.682 22.048 301.032 22.0013 301.312 21.908C301.601 21.8147 301.835 21.6887 302.012 21.53C302.189 21.3713 302.315 21.1893 302.39 20.984C302.474 20.7693 302.516 20.5453 302.516 20.312C302.516 19.9573 302.455 19.6447 302.334 19.374C302.213 19.094 301.998 18.8607 301.69 18.674C301.382 18.4873 300.971 18.3473 300.458 18.254C299.945 18.1513 299.296 18.1 298.512 18.1C298.568 17.6427 298.61 17.2133 298.638 16.812C298.675 16.4107 298.708 16.0187 298.736 15.636C298.764 15.2533 298.787 14.8753 298.806 14.502C298.825 14.1193 298.843 13.718 298.862 13.298H303.538V14.404H299.996C299.987 14.544 299.973 14.7353 299.954 14.978C299.935 15.2113 299.917 15.4587 299.898 15.72C299.879 15.972 299.861 16.2193 299.842 16.462C299.823 16.7047 299.805 16.896 299.786 17.036Z" fill="black"/>
<path d="M313.882 19.108C313.882 18.1653 314.013 17.3347 314.274 16.616C314.535 15.888 314.904 15.2767 315.38 14.782C315.865 14.2873 316.449 13.914 317.13 13.662C317.821 13.4007 318.595 13.2653 319.454 13.256L319.552 14.348C319.001 14.3573 318.497 14.418 318.04 14.53C317.592 14.642 317.191 14.8193 316.836 15.062C316.481 15.3047 316.183 15.622 315.94 16.014C315.697 16.3967 315.515 16.8727 315.394 17.442C315.637 17.33 315.907 17.2367 316.206 17.162C316.514 17.0873 316.831 17.05 317.158 17.05C317.709 17.05 318.175 17.134 318.558 17.302C318.941 17.47 319.253 17.694 319.496 17.974C319.739 18.2447 319.911 18.562 320.014 18.926C320.126 19.2807 320.182 19.654 320.182 20.046C320.182 20.4007 320.121 20.7647 320 21.138C319.879 21.5113 319.692 21.852 319.44 22.16C319.197 22.468 318.885 22.72 318.502 22.916C318.119 23.112 317.667 23.21 317.144 23.21C316.08 23.21 315.268 22.846 314.708 22.118C314.157 21.39 313.882 20.3867 313.882 19.108ZM317.018 18.114C316.691 18.114 316.388 18.1467 316.108 18.212C315.828 18.268 315.548 18.3567 315.268 18.478C315.259 18.5807 315.249 18.688 315.24 18.8C315.24 18.9027 315.24 19.0053 315.24 19.108C315.24 19.5187 315.268 19.906 315.324 20.27C315.38 20.634 315.478 20.956 315.618 21.236C315.767 21.5067 315.963 21.726 316.206 21.894C316.449 22.0527 316.757 22.132 317.13 22.132C317.438 22.132 317.699 22.0667 317.914 21.936C318.129 21.8053 318.306 21.6373 318.446 21.432C318.586 21.2267 318.684 21.0073 318.74 20.774C318.805 20.5313 318.838 20.298 318.838 20.074C318.838 19.4393 318.684 18.954 318.376 18.618C318.077 18.282 317.625 18.114 317.018 18.114Z" fill="black"/>
<path d="M332.282 23C332.338 22.2533 332.469 21.4693 332.674 20.648C332.889 19.8173 333.15 19.0147 333.458 18.24C333.766 17.456 334.102 16.7327 334.466 16.07C334.839 15.398 335.203 14.852 335.558 14.432H330.84V13.298H337.014V14.376C336.706 14.7307 336.365 15.2207 335.992 15.846C335.619 16.462 335.264 17.1573 334.928 17.932C334.601 18.6973 334.317 19.5187 334.074 20.396C333.841 21.264 333.696 22.132 333.64 23H332.282Z" fill="black"/>
<path d="M353.126 20.48C353.126 20.872 353.056 21.236 352.916 21.572C352.785 21.8987 352.585 22.188 352.314 22.44C352.053 22.6827 351.721 22.8693 351.32 23C350.919 23.14 350.457 23.21 349.934 23.21C349.327 23.21 348.819 23.126 348.408 22.958C348.007 22.7807 347.685 22.5613 347.442 22.3C347.199 22.0387 347.027 21.754 346.924 21.446C346.821 21.1287 346.77 20.83 346.77 20.55C346.77 20.2793 346.812 20.0227 346.896 19.78C346.989 19.528 347.106 19.2947 347.246 19.08C347.395 18.8653 347.563 18.674 347.75 18.506C347.946 18.3287 348.151 18.1747 348.366 18.044C347.451 17.5213 346.994 16.7513 346.994 15.734C346.994 15.3793 347.064 15.0433 347.204 14.726C347.344 14.3993 347.54 14.1147 347.792 13.872C348.053 13.6293 348.366 13.438 348.73 13.298C349.094 13.1487 349.5 13.074 349.948 13.074C350.471 13.074 350.919 13.1533 351.292 13.312C351.665 13.4707 351.969 13.676 352.202 13.928C352.445 14.1707 352.617 14.4413 352.72 14.74C352.832 15.0387 352.888 15.328 352.888 15.608C352.888 15.8787 352.846 16.1353 352.762 16.378C352.687 16.6113 352.58 16.8307 352.44 17.036C352.309 17.2413 352.155 17.4233 351.978 17.582C351.81 17.7407 351.633 17.8807 351.446 18.002C352.547 18.5247 353.107 19.3507 353.126 20.48ZM348.086 20.564C348.086 20.732 348.114 20.9093 348.17 21.096C348.235 21.2733 348.343 21.4413 348.492 21.6C348.641 21.7493 348.833 21.8753 349.066 21.978C349.299 22.0807 349.593 22.132 349.948 22.132C350.265 22.132 350.541 22.0853 350.774 21.992C351.017 21.8987 351.213 21.782 351.362 21.642C351.511 21.4927 351.623 21.3247 351.698 21.138C351.773 20.9513 351.81 20.76 351.81 20.564C351.81 20.2653 351.754 20.004 351.642 19.78C351.53 19.556 351.367 19.36 351.152 19.192C350.947 19.024 350.695 18.884 350.396 18.772C350.107 18.6507 349.775 18.548 349.402 18.464C348.982 18.6973 348.655 18.9867 348.422 19.332C348.198 19.6773 348.086 20.088 348.086 20.564ZM351.586 15.594C351.586 15.454 351.553 15.3 351.488 15.132C351.432 14.964 351.339 14.81 351.208 14.67C351.077 14.5207 350.909 14.3993 350.704 14.306C350.499 14.2033 350.247 14.152 349.948 14.152C349.649 14.152 349.393 14.1987 349.178 14.292C348.973 14.3853 348.805 14.5067 348.674 14.656C348.543 14.796 348.445 14.9547 348.38 15.132C348.324 15.3 348.296 15.468 348.296 15.636C348.296 15.8413 348.333 16.0467 348.408 16.252C348.483 16.4573 348.599 16.6487 348.758 16.826C348.917 17.0033 349.122 17.162 349.374 17.302C349.635 17.442 349.943 17.554 350.298 17.638C350.69 17.4047 351.003 17.134 351.236 16.826C351.469 16.5087 351.586 16.098 351.586 15.594Z" fill="black"/>
<path d="M369.014 17.176C369.014 19.0987 368.533 20.5547 367.572 21.544C366.62 22.524 365.201 23.0187 363.316 23.028L363.274 21.936C363.862 21.936 364.389 21.88 364.856 21.768C365.332 21.656 365.747 21.4787 366.102 21.236C366.457 20.984 366.751 20.662 366.984 20.27C367.227 19.878 367.404 19.3973 367.516 18.828C367.273 18.94 366.998 19.0333 366.69 19.108C366.382 19.1733 366.065 19.206 365.738 19.206C365.187 19.206 364.721 19.1267 364.338 18.968C363.955 18.8 363.643 18.5807 363.4 18.31C363.157 18.03 362.98 17.7127 362.868 17.358C362.765 16.994 362.714 16.616 362.714 16.224C362.714 15.8787 362.775 15.5193 362.896 15.146C363.017 14.7727 363.199 14.432 363.442 14.124C363.694 13.816 364.011 13.564 364.394 13.368C364.777 13.172 365.229 13.074 365.752 13.074C366.284 13.074 366.751 13.1673 367.152 13.354C367.563 13.5407 367.903 13.8113 368.174 14.166C368.454 14.5207 368.664 14.9547 368.804 15.468C368.944 15.972 369.014 16.5413 369.014 17.176ZM365.878 18.142C366.205 18.142 366.513 18.114 366.802 18.058C367.091 17.9927 367.371 17.8993 367.642 17.778C367.651 17.6753 367.656 17.5773 367.656 17.484C367.656 17.3813 367.656 17.2787 367.656 17.176C367.656 16.7747 367.628 16.392 367.572 16.028C367.516 15.6547 367.413 15.3327 367.264 15.062C367.124 14.782 366.933 14.5627 366.69 14.404C366.447 14.236 366.139 14.152 365.766 14.152C365.458 14.152 365.197 14.2173 364.982 14.348C364.767 14.4787 364.59 14.6467 364.45 14.852C364.31 15.048 364.207 15.2673 364.142 15.51C364.086 15.7433 364.058 15.972 364.058 16.196C364.058 16.8307 364.207 17.316 364.506 17.652C364.814 17.9787 365.271 18.142 365.878 18.142Z" fill="black"/>
<path d="M384.686 23C384.527 22.58 384.378 22.1693 384.238 21.768C384.098 21.3573 383.953 20.942 383.804 20.522H379.408L378.526 23H377.112C377.485 21.9733 377.835 21.026 378.162 20.158C378.489 19.2807 378.806 18.45 379.114 17.666C379.431 16.882 379.744 16.1353 380.052 15.426C380.36 14.7073 380.682 13.998 381.018 13.298H382.264C382.6 13.998 382.922 14.7073 383.23 15.426C383.538 16.1353 383.846 16.882 384.154 17.666C384.471 18.45 384.793 19.2807 385.12 20.158C385.447 21.026 385.797 21.9733 386.17 23H384.686ZM383.412 19.402C383.113 18.59 382.815 17.806 382.516 17.05C382.227 16.2847 381.923 15.552 381.606 14.852C381.279 15.552 380.967 16.2847 380.668 17.05C380.379 17.806 380.089 18.59 379.8 19.402H383.412Z" fill="black"/>
<path d="M397.822 23.084C397.626 23.084 397.411 23.0793 397.178 23.07C396.954 23.0607 396.725 23.0467 396.492 23.028C396.268 23.0093 396.044 22.986 395.82 22.958C395.596 22.93 395.391 22.8927 395.204 22.846V13.438C395.391 13.3913 395.596 13.354 395.82 13.326C396.044 13.298 396.268 13.2747 396.492 13.256C396.725 13.2373 396.954 13.2233 397.178 13.214C397.402 13.2047 397.612 13.2 397.808 13.2C398.368 13.2 398.891 13.242 399.376 13.326C399.871 13.41 400.295 13.5547 400.65 13.76C401.014 13.956 401.299 14.2173 401.504 14.544C401.709 14.8707 401.812 15.272 401.812 15.748C401.812 16.28 401.686 16.7187 401.434 17.064C401.182 17.4 400.846 17.652 400.426 17.82C400.995 17.988 401.448 18.254 401.784 18.618C402.12 18.982 402.288 19.4953 402.288 20.158C402.288 21.1287 401.929 21.8613 401.21 22.356C400.501 22.8413 399.371 23.084 397.822 23.084ZM396.548 18.478V21.894C396.651 21.9033 396.772 21.9127 396.912 21.922C397.033 21.9313 397.173 21.9407 397.332 21.95C397.5 21.95 397.691 21.95 397.906 21.95C398.307 21.95 398.685 21.9267 399.04 21.88C399.404 21.824 399.721 21.7307 399.992 21.6C400.263 21.4693 400.477 21.2873 400.636 21.054C400.804 20.8207 400.888 20.5267 400.888 20.172C400.888 19.8547 400.827 19.5887 400.706 19.374C400.585 19.15 400.407 18.9727 400.174 18.842C399.95 18.7113 399.679 18.618 399.362 18.562C399.045 18.506 398.69 18.478 398.298 18.478H396.548ZM396.548 17.386H397.976C398.312 17.386 398.629 17.3627 398.928 17.316C399.227 17.2693 399.483 17.1853 399.698 17.064C399.922 16.9427 400.095 16.784 400.216 16.588C400.347 16.392 400.412 16.1447 400.412 15.846C400.412 15.566 400.347 15.3327 400.216 15.146C400.085 14.95 399.903 14.796 399.67 14.684C399.446 14.5627 399.18 14.474 398.872 14.418C398.564 14.362 398.237 14.334 397.892 14.334C397.547 14.334 397.276 14.3387 397.08 14.348C396.884 14.3573 396.707 14.3713 396.548 14.39V17.386Z" fill="black"/>
<path d="M415.376 23.21C414.695 23.21 414.074 23.098 413.514 22.874C412.954 22.65 412.473 22.3233 412.072 21.894C411.671 21.4647 411.358 20.9373 411.134 20.312C410.919 19.6773 410.812 18.954 410.812 18.142C410.812 17.33 410.933 16.6113 411.176 15.986C411.428 15.3513 411.764 14.8193 412.184 14.39C412.604 13.9607 413.094 13.634 413.654 13.41C414.214 13.186 414.811 13.074 415.446 13.074C415.847 13.074 416.207 13.102 416.524 13.158C416.851 13.214 417.131 13.2793 417.364 13.354C417.607 13.4287 417.803 13.5033 417.952 13.578C418.101 13.6527 418.204 13.7087 418.26 13.746L417.868 14.866C417.784 14.81 417.663 14.7493 417.504 14.684C417.345 14.6187 417.163 14.5533 416.958 14.488C416.762 14.4227 416.543 14.3713 416.3 14.334C416.067 14.2873 415.829 14.264 415.586 14.264C415.073 14.264 414.611 14.3527 414.2 14.53C413.789 14.7073 413.439 14.964 413.15 15.3C412.861 15.636 412.637 16.0467 412.478 16.532C412.329 17.008 412.254 17.5447 412.254 18.142C412.254 18.7207 412.319 19.248 412.45 19.724C412.59 20.2 412.795 20.6107 413.066 20.956C413.337 21.292 413.673 21.5533 414.074 21.74C414.485 21.9267 414.961 22.02 415.502 22.02C416.127 22.02 416.645 21.9547 417.056 21.824C417.467 21.6933 417.775 21.5767 417.98 21.474L418.33 22.594C418.265 22.6407 418.148 22.7013 417.98 22.776C417.812 22.8413 417.602 22.9067 417.35 22.972C417.098 23.0373 416.804 23.0933 416.468 23.14C416.132 23.1867 415.768 23.21 415.376 23.21Z" fill="black"/>
<path d="M435.17 18.142C435.17 18.982 435.039 19.7147 434.778 20.34C434.517 20.956 434.148 21.4693 433.672 21.88C433.196 22.2813 432.627 22.5847 431.964 22.79C431.301 22.986 430.573 23.084 429.78 23.084C429.388 23.084 428.954 23.0653 428.478 23.028C428.011 23 427.587 22.9393 427.204 22.846V13.438C427.587 13.3447 428.011 13.284 428.478 13.256C428.954 13.2187 429.388 13.2 429.78 13.2C430.573 13.2 431.301 13.3027 431.964 13.508C432.627 13.704 433.196 14.0073 433.672 14.418C434.148 14.8193 434.517 15.3327 434.778 15.958C435.039 16.574 435.17 17.302 435.17 18.142ZM429.892 21.894C431.18 21.894 432.141 21.5673 432.776 20.914C433.411 20.2513 433.728 19.3273 433.728 18.142C433.728 16.9567 433.411 16.0373 432.776 15.384C432.141 14.7213 431.18 14.39 429.892 14.39C429.509 14.39 429.211 14.3947 428.996 14.404C428.791 14.4133 428.646 14.4227 428.562 14.432V21.852C428.646 21.8613 428.791 21.8707 428.996 21.88C429.211 21.8893 429.509 21.894 429.892 21.894Z" fill="black"/>
<path d="M444.204 23V13.298H450.126V14.46H445.562V17.344H449.622V18.478H445.562V21.838H450.476V23H444.204Z" fill="black"/>
<path d="M460.204 23V13.298H466.056V14.46H461.562V17.386H465.552V18.534H461.562V23H460.204Z" fill="black"/>
<path d="M37.73 56H36.8V50.8H37.73V56ZM37.26 49.86C37.0933 49.86 36.95 49.8067 36.83 49.7C36.7167 49.5867 36.66 49.4367 36.66 49.25C36.66 49.0633 36.7167 48.9167 36.83 48.81C36.95 48.6967 37.0933 48.64 37.26 48.64C37.4267 48.64 37.5667 48.6967 37.68 48.81C37.8 48.9167 37.86 49.0633 37.86 49.25C37.86 49.4367 37.8 49.5867 37.68 49.7C37.5667 49.8067 37.4267 49.86 37.26 49.86ZM39.3293 50.95C39.5426 50.8967 39.826 50.84 40.1793 50.78C40.5326 50.72 40.9393 50.69 41.3993 50.69C41.8126 50.69 42.156 50.75 42.4293 50.87C42.7026 50.9833 42.9193 51.1467 43.0793 51.36C43.246 51.5667 43.3626 51.8167 43.4293 52.11C43.496 52.4033 43.5293 52.7267 43.5293 53.08V56H42.5993V53.28C42.5993 52.96 42.576 52.6867 42.5293 52.46C42.4893 52.2333 42.4193 52.05 42.3193 51.91C42.2193 51.77 42.086 51.67 41.9193 51.61C41.7526 51.5433 41.546 51.51 41.2993 51.51C41.1993 51.51 41.096 51.5133 40.9893 51.52C40.8826 51.5267 40.7793 51.5367 40.6793 51.55C40.586 51.5567 40.4993 51.5667 40.4193 51.58C40.346 51.5933 40.2926 51.6033 40.2593 51.61V56H39.3293V50.95ZM49.9337 49.042C50.0924 48.9393 50.3304 48.832 50.6477 48.72C50.9744 48.608 51.3477 48.552 51.7677 48.552C52.2904 48.552 52.7524 48.6453 53.1537 48.832C53.5644 49.0187 53.9097 49.28 54.1897 49.616C54.4697 49.952 54.6797 50.3533 54.8197 50.82C54.9691 51.2867 55.0437 51.8 55.0437 52.36C55.0437 52.948 54.9551 53.48 54.7777 53.956C54.6097 54.4227 54.3671 54.8193 54.0497 55.146C53.7324 55.4727 53.3497 55.7247 52.9017 55.902C52.4537 56.0793 51.9497 56.168 51.3897 56.168C50.7831 56.168 50.2464 56.126 49.7797 56.042C49.3131 55.958 48.9304 55.874 48.6317 55.79V45.36L49.9337 45.136V49.042ZM49.9337 54.866C50.0644 54.9033 50.2464 54.9407 50.4797 54.978C50.7224 55.006 51.0211 55.02 51.3757 55.02C52.0757 55.02 52.6357 54.7913 53.0557 54.334C53.4757 53.8673 53.6857 53.2093 53.6857 52.36C53.6857 51.9867 53.6484 51.6367 53.5737 51.31C53.4991 50.9833 53.3777 50.7033 53.2097 50.47C53.0417 50.2273 52.8224 50.0407 52.5517 49.91C52.2904 49.77 51.9731 49.7 51.5997 49.7C51.2451 49.7 50.9184 49.7607 50.6197 49.882C50.3211 50.0033 50.0924 50.1293 49.9337 50.26V54.866ZM58.1779 56H56.8759V48.72H58.1779V56ZM57.5199 47.404C57.2865 47.404 57.0859 47.3293 56.9179 47.18C56.7592 47.0213 56.6799 46.8113 56.6799 46.55C56.6799 46.2887 56.7592 46.0833 56.9179 45.934C57.0859 45.7753 57.2865 45.696 57.5199 45.696C57.7532 45.696 57.9492 45.7753 58.1079 45.934C58.2759 46.0833 58.3599 46.2887 58.3599 46.55C58.3599 46.8113 58.2759 47.0213 58.1079 47.18C57.9492 47.3293 57.7532 47.404 57.5199 47.404ZM60.4169 48.93C60.7155 48.8553 61.1122 48.776 61.6069 48.692C62.1015 48.608 62.6709 48.566 63.3149 48.566C63.8935 48.566 64.3742 48.65 64.7569 48.818C65.1395 48.9767 65.4429 49.2053 65.6669 49.504C65.9002 49.7933 66.0635 50.1433 66.1569 50.554C66.2502 50.9647 66.2969 51.4173 66.2969 51.912V56H64.9949V52.192C64.9949 51.744 64.9622 51.3613 64.8969 51.044C64.8409 50.7267 64.7429 50.47 64.6029 50.274C64.4629 50.078 64.2762 49.938 64.0429 49.854C63.8095 49.7607 63.5202 49.714 63.1749 49.714C63.0349 49.714 62.8902 49.7187 62.7409 49.728C62.5915 49.7373 62.4469 49.7513 62.3069 49.77C62.1762 49.7793 62.0549 49.7933 61.9429 49.812C61.8402 49.8307 61.7655 49.8447 61.7189 49.854V56H60.4169V48.93ZM68.6799 45.038H71.8299V46.06H69.8979V57.568H71.8299V58.59H68.6799V45.038ZM75.1074 55.048C75.938 55.048 76.5307 54.8847 76.8854 54.558C77.2494 54.2313 77.4314 53.7927 77.4314 53.242C77.4314 52.8873 77.3567 52.5887 77.2074 52.346C77.058 52.1033 76.862 51.912 76.6194 51.772C76.3767 51.6227 76.092 51.52 75.7654 51.464C75.448 51.3987 75.1214 51.366 74.7854 51.366H74.4494V50.302H74.9114C75.1447 50.302 75.3827 50.2787 75.6254 50.232C75.8774 50.1853 76.106 50.1013 76.3114 49.98C76.5167 49.8587 76.6847 49.6953 76.8154 49.49C76.946 49.2753 77.0114 49.0093 77.0114 48.692C77.0114 48.4307 76.9647 48.2067 76.8714 48.02C76.778 47.8333 76.652 47.6793 76.4934 47.558C76.344 47.4367 76.1667 47.3527 75.9614 47.306C75.7654 47.25 75.5554 47.222 75.3314 47.222C74.8834 47.222 74.5007 47.2873 74.1834 47.418C73.8754 47.5487 73.614 47.684 73.3994 47.824L72.8954 46.83C73.0074 46.7553 73.1474 46.676 73.3154 46.592C73.4927 46.4987 73.6887 46.4147 73.9034 46.34C74.118 46.2653 74.3467 46.2047 74.5894 46.158C74.8414 46.102 75.1027 46.074 75.3734 46.074C75.8867 46.074 76.33 46.1393 76.7034 46.27C77.0767 46.3913 77.3847 46.5687 77.6274 46.802C77.87 47.026 78.052 47.2967 78.1734 47.614C78.2947 47.922 78.3554 48.258 78.3554 48.622C78.3554 49.126 78.2107 49.56 77.9214 49.924C77.632 50.2787 77.282 50.5493 76.8714 50.736C77.1234 50.8107 77.366 50.918 77.5994 51.058C77.8327 51.198 78.0334 51.3753 78.2014 51.59C78.3787 51.8047 78.5187 52.052 78.6214 52.332C78.7334 52.612 78.7894 52.9247 78.7894 53.27C78.7894 53.69 78.7147 54.082 78.5654 54.446C78.4254 54.8007 78.2014 55.1087 77.8934 55.37C77.5947 55.6313 77.2167 55.8367 76.7594 55.986C76.302 56.1353 75.7607 56.21 75.1354 56.21C74.8927 56.21 74.6407 56.1913 74.3794 56.154C74.1274 56.1167 73.8894 56.07 73.6654 56.014C73.4414 55.958 73.2454 55.902 73.0774 55.846C72.9094 55.79 72.788 55.7433 72.7134 55.706L72.9654 54.572C73.124 54.6467 73.3854 54.7447 73.7494 54.866C74.1227 54.9873 74.5754 55.048 75.1074 55.048ZM83.1077 58.59H79.9577V57.568H81.8897V46.06H79.9577V45.038H83.1077V58.59Z" fill="black"/>
<path d="M37.73 89H36.8V83.8H37.73V89ZM37.26 82.86C37.0933 82.86 36.95 82.8067 36.83 82.7C36.7167 82.5867 36.66 82.4367 36.66 82.25C36.66 82.0633 36.7167 81.9167 36.83 81.81C36.95 81.6967 37.0933 81.64 37.26 81.64C37.4267 81.64 37.5667 81.6967 37.68 81.81C37.8 81.9167 37.86 82.0633 37.86 82.25C37.86 82.4367 37.8 82.5867 37.68 82.7C37.5667 82.8067 37.4267 82.86 37.26 82.86ZM39.3293 83.95C39.5426 83.8967 39.826 83.84 40.1793 83.78C40.5326 83.72 40.9393 83.69 41.3993 83.69C41.8126 83.69 42.156 83.75 42.4293 83.87C42.7026 83.9833 42.9193 84.1467 43.0793 84.36C43.246 84.5667 43.3626 84.8167 43.4293 85.11C43.496 85.4033 43.5293 85.7267 43.5293 86.08V89H42.5993V86.28C42.5993 85.96 42.576 85.6867 42.5293 85.46C42.4893 85.2333 42.4193 85.05 42.3193 84.91C42.2193 84.77 42.086 84.67 41.9193 84.61C41.7526 84.5433 41.546 84.51 41.2993 84.51C41.1993 84.51 41.096 84.5133 40.9893 84.52C40.8826 84.5267 40.7793 84.5367 40.6793 84.55C40.586 84.5567 40.4993 84.5667 40.4193 84.58C40.346 84.5933 40.2926 84.6033 40.2593 84.61V89H39.3293V83.95ZM49.9337 82.042C50.0924 81.9393 50.3304 81.832 50.6477 81.72C50.9744 81.608 51.3477 81.552 51.7677 81.552C52.2904 81.552 52.7524 81.6453 53.1537 81.832C53.5644 82.0187 53.9097 82.28 54.1897 82.616C54.4697 82.952 54.6797 83.3533 54.8197 83.82C54.9691 84.2867 55.0437 84.8 55.0437 85.36C55.0437 85.948 54.9551 86.48 54.7777 86.956C54.6097 87.4227 54.3671 87.8193 54.0497 88.146C53.7324 88.4727 53.3497 88.7247 52.9017 88.902C52.4537 89.0793 51.9497 89.168 51.3897 89.168C50.7831 89.168 50.2464 89.126 49.7797 89.042C49.3131 88.958 48.9304 88.874 48.6317 88.79V78.36L49.9337 78.136V82.042ZM49.9337 87.866C50.0644 87.9033 50.2464 87.9407 50.4797 87.978C50.7224 88.006 51.0211 88.02 51.3757 88.02C52.0757 88.02 52.6357 87.7913 53.0557 87.334C53.4757 86.8673 53.6857 86.2093 53.6857 85.36C53.6857 84.9867 53.6484 84.6367 53.5737 84.31C53.4991 83.9833 53.3777 83.7033 53.2097 83.47C53.0417 83.2273 52.8224 83.0407 52.5517 82.91C52.2904 82.77 51.9731 82.7 51.5997 82.7C51.2451 82.7 50.9184 82.7607 50.6197 82.882C50.3211 83.0033 50.0924 83.1293 49.9337 83.26V87.866ZM58.1779 89H56.8759V81.72H58.1779V89ZM57.5199 80.404C57.2865 80.404 57.0859 80.3293 56.9179 80.18C56.7592 80.0213 56.6799 79.8113 56.6799 79.55C56.6799 79.2887 56.7592 79.0833 56.9179 78.934C57.0859 78.7753 57.2865 78.696 57.5199 78.696C57.7532 78.696 57.9492 78.7753 58.1079 78.934C58.2759 79.0833 58.3599 79.2887 58.3599 79.55C58.3599 79.8113 58.2759 80.0213 58.1079 80.18C57.9492 80.3293 57.7532 80.404 57.5199 80.404ZM60.4169 81.93C60.7155 81.8553 61.1122 81.776 61.6069 81.692C62.1015 81.608 62.6709 81.566 63.3149 81.566C63.8935 81.566 64.3742 81.65 64.7569 81.818C65.1395 81.9767 65.4429 82.2053 65.6669 82.504C65.9002 82.7933 66.0635 83.1433 66.1569 83.554C66.2502 83.9647 66.2969 84.4173 66.2969 84.912V89H64.9949V85.192C64.9949 84.744 64.9622 84.3613 64.8969 84.044C64.8409 83.7267 64.7429 83.47 64.6029 83.274C64.4629 83.078 64.2762 82.938 64.0429 82.854C63.8095 82.7607 63.5202 82.714 63.1749 82.714C63.0349 82.714 62.8902 82.7187 62.7409 82.728C62.5915 82.7373 62.4469 82.7513 62.3069 82.77C62.1762 82.7793 62.0549 82.7933 61.9429 82.812C61.8402 82.8307 61.7655 82.8447 61.7189 82.854V89H60.4169V81.93ZM68.6799 78.038H71.8299V79.06H69.8979V90.568H71.8299V91.59H68.6799V78.038ZM78.4814 81.776C78.4814 82.112 78.4114 82.4387 78.2714 82.756C78.1407 83.064 77.9634 83.372 77.7394 83.68C77.5154 83.9787 77.2634 84.2773 76.9834 84.576C76.7034 84.8653 76.4234 85.15 76.1434 85.43C75.9847 85.5887 75.798 85.7753 75.5834 85.99C75.378 86.2047 75.182 86.4287 74.9954 86.662C74.8087 86.8953 74.65 87.1193 74.5194 87.334C74.398 87.5487 74.3374 87.7353 74.3374 87.894H78.8034V89H72.9234C72.914 88.944 72.9094 88.888 72.9094 88.832C72.9094 88.776 72.9094 88.7247 72.9094 88.678C72.9094 88.2393 72.9794 87.8333 73.1194 87.46C73.2687 87.0773 73.46 86.718 73.6934 86.382C73.9267 86.046 74.188 85.7287 74.4774 85.43C74.7667 85.1313 75.0514 84.842 75.3314 84.562C75.5647 84.338 75.784 84.1187 75.9894 83.904C76.204 83.68 76.3907 83.4607 76.5494 83.246C76.7174 83.022 76.848 82.7933 76.9414 82.56C77.044 82.3267 77.0954 82.0793 77.0954 81.818C77.0954 81.538 77.0487 81.3 76.9554 81.104C76.8714 80.908 76.7547 80.7447 76.6054 80.614C76.456 80.4833 76.2787 80.39 76.0734 80.334C75.8774 80.2687 75.6674 80.236 75.4434 80.236C75.1727 80.236 74.9254 80.2733 74.7014 80.348C74.4774 80.4227 74.2767 80.5113 74.0994 80.614C73.922 80.7073 73.7727 80.81 73.6514 80.922C73.53 81.0247 73.4367 81.104 73.3714 81.16L72.7274 80.236C72.8114 80.1427 72.9374 80.0307 73.1054 79.9C73.2734 79.76 73.474 79.6293 73.7074 79.508C73.9407 79.3867 74.202 79.284 74.4914 79.2C74.7807 79.116 75.0934 79.074 75.4294 79.074C76.4467 79.074 77.2074 79.312 77.7114 79.788C78.2247 80.2547 78.4814 80.9173 78.4814 81.776ZM83.1077 91.59H79.9577V90.568H81.8897V79.06H79.9577V78.038H83.1077V91.59Z" fill="black"/>
<path d="M37.73 121H36.8V115.8H37.73V121ZM37.26 114.86C37.0933 114.86 36.95 114.807 36.83 114.7C36.7167 114.587 36.66 114.437 36.66 114.25C36.66 114.063 36.7167 113.917 36.83 113.81C36.95 113.697 37.0933 113.64 37.26 113.64C37.4267 113.64 37.5667 113.697 37.68 113.81C37.8 113.917 37.86 114.063 37.86 114.25C37.86 114.437 37.8 114.587 37.68 114.7C37.5667 114.807 37.4267 114.86 37.26 114.86ZM39.3293 115.95C39.5426 115.897 39.826 115.84 40.1793 115.78C40.5326 115.72 40.9393 115.69 41.3993 115.69C41.8126 115.69 42.156 115.75 42.4293 115.87C42.7026 115.983 42.9193 116.147 43.0793 116.36C43.246 116.567 43.3626 116.817 43.4293 117.11C43.496 117.403 43.5293 117.727 43.5293 118.08V121H42.5993V118.28C42.5993 117.96 42.576 117.687 42.5293 117.46C42.4893 117.233 42.4193 117.05 42.3193 116.91C42.2193 116.77 42.086 116.67 41.9193 116.61C41.7526 116.543 41.546 116.51 41.2993 116.51C41.1993 116.51 41.096 116.513 40.9893 116.52C40.8826 116.527 40.7793 116.537 40.6793 116.55C40.586 116.557 40.4993 116.567 40.4193 116.58C40.346 116.593 40.2926 116.603 40.2593 116.61V121H39.3293V115.95ZM49.9337 114.042C50.0924 113.939 50.3304 113.832 50.6477 113.72C50.9744 113.608 51.3477 113.552 51.7677 113.552C52.2904 113.552 52.7524 113.645 53.1537 113.832C53.5644 114.019 53.9097 114.28 54.1897 114.616C54.4697 114.952 54.6797 115.353 54.8197 115.82C54.9691 116.287 55.0437 116.8 55.0437 117.36C55.0437 117.948 54.9551 118.48 54.7777 118.956C54.6097 119.423 54.3671 119.819 54.0497 120.146C53.7324 120.473 53.3497 120.725 52.9017 120.902C52.4537 121.079 51.9497 121.168 51.3897 121.168C50.7831 121.168 50.2464 121.126 49.7797 121.042C49.3131 120.958 48.9304 120.874 48.6317 120.79V110.36L49.9337 110.136V114.042ZM49.9337 119.866C50.0644 119.903 50.2464 119.941 50.4797 119.978C50.7224 120.006 51.0211 120.02 51.3757 120.02C52.0757 120.02 52.6357 119.791 53.0557 119.334C53.4757 118.867 53.6857 118.209 53.6857 117.36C53.6857 116.987 53.6484 116.637 53.5737 116.31C53.4991 115.983 53.3777 115.703 53.2097 115.47C53.0417 115.227 52.8224 115.041 52.5517 114.91C52.2904 114.77 51.9731 114.7 51.5997 114.7C51.2451 114.7 50.9184 114.761 50.6197 114.882C50.3211 115.003 50.0924 115.129 49.9337 115.26V119.866ZM58.1779 121H56.8759V113.72H58.1779V121ZM57.5199 112.404C57.2865 112.404 57.0859 112.329 56.9179 112.18C56.7592 112.021 56.6799 111.811 56.6799 111.55C56.6799 111.289 56.7592 111.083 56.9179 110.934C57.0859 110.775 57.2865 110.696 57.5199 110.696C57.7532 110.696 57.9492 110.775 58.1079 110.934C58.2759 111.083 58.3599 111.289 58.3599 111.55C58.3599 111.811 58.2759 112.021 58.1079 112.18C57.9492 112.329 57.7532 112.404 57.5199 112.404ZM60.4169 113.93C60.7155 113.855 61.1122 113.776 61.6069 113.692C62.1015 113.608 62.6709 113.566 63.3149 113.566C63.8935 113.566 64.3742 113.65 64.7569 113.818C65.1395 113.977 65.4429 114.205 65.6669 114.504C65.9002 114.793 66.0635 115.143 66.1569 115.554C66.2502 115.965 66.2969 116.417 66.2969 116.912V121H64.9949V117.192C64.9949 116.744 64.9622 116.361 64.8969 116.044C64.8409 115.727 64.7429 115.47 64.6029 115.274C64.4629 115.078 64.2762 114.938 64.0429 114.854C63.8095 114.761 63.5202 114.714 63.1749 114.714C63.0349 114.714 62.8902 114.719 62.7409 114.728C62.5915 114.737 62.4469 114.751 62.3069 114.77C62.1762 114.779 62.0549 114.793 61.9429 114.812C61.8402 114.831 61.7655 114.845 61.7189 114.854V121H60.4169V113.93ZM68.6799 110.038H71.8299V111.06H69.8979V122.568H71.8299V123.59H68.6799V110.038ZM73.2454 113.3C73.7774 113.095 74.2954 112.833 74.7994 112.516C75.3034 112.189 75.7654 111.783 76.1854 111.298H77.1094V121H75.8074V113.104C75.6954 113.207 75.5554 113.314 75.3874 113.426C75.2287 113.538 75.0514 113.645 74.8554 113.748C74.6687 113.851 74.468 113.949 74.2534 114.042C74.048 114.135 73.8474 114.215 73.6514 114.28L73.2454 113.3ZM83.1077 123.59H79.9577V122.568H81.8897V111.06H79.9577V110.038H83.1077V123.59Z" fill="black"/>
<path d="M37.73 154H36.8V148.8H37.73V154ZM37.26 147.86C37.0933 147.86 36.95 147.807 36.83 147.7C36.7167 147.587 36.66 147.437 36.66 147.25C36.66 147.063 36.7167 146.917 36.83 146.81C36.95 146.697 37.0933 146.64 37.26 146.64C37.4267 146.64 37.5667 146.697 37.68 146.81C37.8 146.917 37.86 147.063 37.86 147.25C37.86 147.437 37.8 147.587 37.68 147.7C37.5667 147.807 37.4267 147.86 37.26 147.86ZM39.3293 148.95C39.5426 148.897 39.826 148.84 40.1793 148.78C40.5326 148.72 40.9393 148.69 41.3993 148.69C41.8126 148.69 42.156 148.75 42.4293 148.87C42.7026 148.983 42.9193 149.147 43.0793 149.36C43.246 149.567 43.3626 149.817 43.4293 150.11C43.496 150.403 43.5293 150.727 43.5293 151.08V154H42.5993V151.28C42.5993 150.96 42.576 150.687 42.5293 150.46C42.4893 150.233 42.4193 150.05 42.3193 149.91C42.2193 149.77 42.086 149.67 41.9193 149.61C41.7526 149.543 41.546 149.51 41.2993 149.51C41.1993 149.51 41.096 149.513 40.9893 149.52C40.8826 149.527 40.7793 149.537 40.6793 149.55C40.586 149.557 40.4993 149.567 40.4193 149.58C40.346 149.593 40.2926 149.603 40.2593 149.61V154H39.3293V148.95ZM49.9337 147.042C50.0924 146.939 50.3304 146.832 50.6477 146.72C50.9744 146.608 51.3477 146.552 51.7677 146.552C52.2904 146.552 52.7524 146.645 53.1537 146.832C53.5644 147.019 53.9097 147.28 54.1897 147.616C54.4697 147.952 54.6797 148.353 54.8197 148.82C54.9691 149.287 55.0437 149.8 55.0437 150.36C55.0437 150.948 54.9551 151.48 54.7777 151.956C54.6097 152.423 54.3671 152.819 54.0497 153.146C53.7324 153.473 53.3497 153.725 52.9017 153.902C52.4537 154.079 51.9497 154.168 51.3897 154.168C50.7831 154.168 50.2464 154.126 49.7797 154.042C49.3131 153.958 48.9304 153.874 48.6317 153.79V143.36L49.9337 143.136V147.042ZM49.9337 152.866C50.0644 152.903 50.2464 152.941 50.4797 152.978C50.7224 153.006 51.0211 153.02 51.3757 153.02C52.0757 153.02 52.6357 152.791 53.0557 152.334C53.4757 151.867 53.6857 151.209 53.6857 150.36C53.6857 149.987 53.6484 149.637 53.5737 149.31C53.4991 148.983 53.3777 148.703 53.2097 148.47C53.0417 148.227 52.8224 148.041 52.5517 147.91C52.2904 147.77 51.9731 147.7 51.5997 147.7C51.2451 147.7 50.9184 147.761 50.6197 147.882C50.3211 148.003 50.0924 148.129 49.9337 148.26V152.866ZM58.1779 154H56.8759V146.72H58.1779V154ZM57.5199 145.404C57.2865 145.404 57.0859 145.329 56.9179 145.18C56.7592 145.021 56.6799 144.811 56.6799 144.55C56.6799 144.289 56.7592 144.083 56.9179 143.934C57.0859 143.775 57.2865 143.696 57.5199 143.696C57.7532 143.696 57.9492 143.775 58.1079 143.934C58.2759 144.083 58.3599 144.289 58.3599 144.55C58.3599 144.811 58.2759 145.021 58.1079 145.18C57.9492 145.329 57.7532 145.404 57.5199 145.404ZM60.4169 146.93C60.7155 146.855 61.1122 146.776 61.6069 146.692C62.1015 146.608 62.6709 146.566 63.3149 146.566C63.8935 146.566 64.3742 146.65 64.7569 146.818C65.1395 146.977 65.4429 147.205 65.6669 147.504C65.9002 147.793 66.0635 148.143 66.1569 148.554C66.2502 148.965 66.2969 149.417 66.2969 149.912V154H64.9949V150.192C64.9949 149.744 64.9622 149.361 64.8969 149.044C64.8409 148.727 64.7429 148.47 64.6029 148.274C64.4629 148.078 64.2762 147.938 64.0429 147.854C63.8095 147.761 63.5202 147.714 63.1749 147.714C63.0349 147.714 62.8902 147.719 62.7409 147.728C62.5915 147.737 62.4469 147.751 62.3069 147.77C62.1762 147.779 62.0549 147.793 61.9429 147.812C61.8402 147.831 61.7655 147.845 61.7189 147.854V154H60.4169V146.93ZM68.6799 143.038H71.8299V144.06H69.8979V155.568H71.8299V156.59H68.6799V143.038ZM72.6434 149.142C72.6434 147.518 72.928 146.267 73.4974 145.39C74.076 144.513 74.874 144.074 75.8914 144.074C76.9087 144.074 77.702 144.513 78.2714 145.39C78.85 146.267 79.1394 147.518 79.1394 149.142C79.1394 150.766 78.85 152.017 78.2714 152.894C77.702 153.771 76.9087 154.21 75.8914 154.21C74.874 154.21 74.076 153.771 73.4974 152.894C72.928 152.017 72.6434 150.766 72.6434 149.142ZM77.7674 149.142C77.7674 148.61 77.7347 148.106 77.6694 147.63C77.6134 147.154 77.5107 146.739 77.3614 146.384C77.2214 146.029 77.03 145.749 76.7874 145.544C76.5447 145.329 76.246 145.222 75.8914 145.222C75.5367 145.222 75.238 145.329 74.9954 145.544C74.7527 145.749 74.5567 146.029 74.4074 146.384C74.2674 146.739 74.1647 147.154 74.0994 147.63C74.0434 148.106 74.0154 148.61 74.0154 149.142C74.0154 149.674 74.0434 150.178 74.0994 150.654C74.1647 151.13 74.2674 151.545 74.4074 151.9C74.5567 152.255 74.7527 152.539 74.9954 152.754C75.238 152.959 75.5367 153.062 75.8914 153.062C76.246 153.062 76.5447 152.959 76.7874 152.754C77.03 152.539 77.2214 152.255 77.3614 151.9C77.5107 151.545 77.6134 151.13 77.6694 150.654C77.7347 150.178 77.7674 149.674 77.7674 149.142ZM83.1077 156.59H79.9577V155.568H81.8897V144.06H79.9577V143.038H83.1077V156.59Z" fill="black"/>
<path d="M6.73 25H5.8V19.8H6.73V25ZM6.26 18.86C6.09333 18.86 5.95 18.8067 5.83 18.7C5.71667 18.5867 5.66 18.4367 5.66 18.25C5.66 18.0633 5.71667 17.9167 5.83 17.81C5.95 17.6967 6.09333 17.64 6.26 17.64C6.42667 17.64 6.56667 17.6967 6.68 17.81C6.8 17.9167 6.86 18.0633 6.86 18.25C6.86 18.4367 6.8 18.5867 6.68 18.7C6.56667 18.8067 6.42667 18.86 6.26 18.86ZM8.3293 19.95C8.54263 19.8967 8.82596 19.84 9.1793 19.78C9.53263 19.72 9.9393 19.69 10.3993 19.69C10.8126 19.69 11.156 19.75 11.4293 19.87C11.7026 19.9833 11.9193 20.1467 12.0793 20.36C12.246 20.5667 12.3626 20.8167 12.4293 21.11C12.496 21.4033 12.5293 21.7267 12.5293 22.08V25H11.5993V22.28C11.5993 21.96 11.576 21.6867 11.5293 21.46C11.4893 21.2333 11.4193 21.05 11.3193 20.91C11.2193 20.77 11.086 20.67 10.9193 20.61C10.7526 20.5433 10.546 20.51 10.2993 20.51C10.1993 20.51 10.096 20.5133 9.9893 20.52C9.88263 20.5267 9.7793 20.5367 9.6793 20.55C9.58596 20.5567 9.4993 20.5667 9.4193 20.58C9.34596 20.5933 9.29263 20.6033 9.2593 20.61V25H8.3293V19.95ZM18.9337 18.042C19.0924 17.9393 19.3304 17.832 19.6477 17.72C19.9744 17.608 20.3477 17.552 20.7677 17.552C21.2904 17.552 21.7524 17.6453 22.1537 17.832C22.5644 18.0187 22.9097 18.28 23.1897 18.616C23.4697 18.952 23.6797 19.3533 23.8197 19.82C23.9691 20.2867 24.0437 20.8 24.0437 21.36C24.0437 21.948 23.9551 22.48 23.7777 22.956C23.6097 23.4227 23.3671 23.8193 23.0497 24.146C22.7324 24.4727 22.3497 24.7247 21.9017 24.902C21.4537 25.0793 20.9497 25.168 20.3897 25.168C19.7831 25.168 19.2464 25.126 18.7797 25.042C18.3131 24.958 17.9304 24.874 17.6317 24.79V14.36L18.9337 14.136V18.042ZM18.9337 23.866C19.0644 23.9033 19.2464 23.9407 19.4797 23.978C19.7224 24.006 20.0211 24.02 20.3757 24.02C21.0757 24.02 21.6357 23.7913 22.0557 23.334C22.4757 22.8673 22.6857 22.2093 22.6857 21.36C22.6857 20.9867 22.6484 20.6367 22.5737 20.31C22.4991 19.9833 22.3777 19.7033 22.2097 19.47C22.0417 19.2273 21.8224 19.0407 21.5517 18.91C21.2904 18.77 20.9731 18.7 20.5997 18.7C20.2451 18.7 19.9184 18.7607 19.6197 18.882C19.3211 19.0033 19.0924 19.1293 18.9337 19.26V23.866ZM27.1779 25H25.8759V17.72H27.1779V25ZM26.5199 16.404C26.2865 16.404 26.0859 16.3293 25.9179 16.18C25.7592 16.0213 25.6799 15.8113 25.6799 15.55C25.6799 15.2887 25.7592 15.0833 25.9179 14.934C26.0859 14.7753 26.2865 14.696 26.5199 14.696C26.7532 14.696 26.9492 14.7753 27.1079 14.934C27.2759 15.0833 27.3599 15.2887 27.3599 15.55C27.3599 15.8113 27.2759 16.0213 27.1079 16.18C26.9492 16.3293 26.7532 16.404 26.5199 16.404ZM29.4169 17.93C29.7155 17.8553 30.1122 17.776 30.6069 17.692C31.1015 17.608 31.6709 17.566 32.3149 17.566C32.8935 17.566 33.3742 17.65 33.7569 17.818C34.1395 17.9767 34.4429 18.2053 34.6669 18.504C34.9002 18.7933 35.0635 19.1433 35.1569 19.554C35.2502 19.9647 35.2969 20.4173 35.2969 20.912V25H33.9949V21.192C33.9949 20.744 33.9622 20.3613 33.8969 20.044C33.8409 19.7267 33.7429 19.47 33.6029 19.274C33.4629 19.078 33.2762 18.938 33.0429 18.854C32.8095 18.7607 32.5202 18.714 32.1749 18.714C32.0349 18.714 31.8902 18.7187 31.7409 18.728C31.5915 18.7373 31.4469 18.7513 31.3069 18.77C31.1762 18.7793 31.0549 18.7933 30.9429 18.812C30.8402 18.8307 30.7655 18.8447 30.7189 18.854V25H29.4169V17.93ZM37.6799 14.038H40.8299V15.06H38.8979V26.568H40.8299V27.59H37.6799V14.038ZM44.1074 24.048C44.938 24.048 45.5307 23.8847 45.8854 23.558C46.2494 23.2313 46.4314 22.7927 46.4314 22.242C46.4314 21.8873 46.3567 21.5887 46.2074 21.346C46.058 21.1033 45.862 20.912 45.6194 20.772C45.3767 20.6227 45.092 20.52 44.7654 20.464C44.448 20.3987 44.1214 20.366 43.7854 20.366H43.4494V19.302H43.9114C44.1447 19.302 44.3827 19.2787 44.6254 19.232C44.8774 19.1853 45.106 19.1013 45.3114 18.98C45.5167 18.8587 45.6847 18.6953 45.8154 18.49C45.946 18.2753 46.0114 18.0093 46.0114 17.692C46.0114 17.4307 45.9647 17.2067 45.8714 17.02C45.778 16.8333 45.652 16.6793 45.4934 16.558C45.344 16.4367 45.1667 16.3527 44.9614 16.306C44.7654 16.25 44.5554 16.222 44.3314 16.222C43.8834 16.222 43.5007 16.2873 43.1834 16.418C42.8754 16.5487 42.614 16.684 42.3994 16.824L41.8954 15.83C42.0074 15.7553 42.1474 15.676 42.3154 15.592C42.4927 15.4987 42.6887 15.4147 42.9034 15.34C43.118 15.2653 43.3467 15.2047 43.5894 15.158C43.8414 15.102 44.1027 15.074 44.3734 15.074C44.8867 15.074 45.33 15.1393 45.7034 15.27C46.0767 15.3913 46.3847 15.5687 46.6274 15.802C46.87 16.026 47.052 16.2967 47.1734 16.614C47.2947 16.922 47.3554 17.258 47.3554 17.622C47.3554 18.126 47.2107 18.56 46.9214 18.924C46.632 19.2787 46.282 19.5493 45.8714 19.736C46.1234 19.8107 46.366 19.918 46.5994 20.058C46.8327 20.198 47.0334 20.3753 47.2014 20.59C47.3787 20.8047 47.5187 21.052 47.6214 21.332C47.7334 21.612 47.7894 21.9247 47.7894 22.27C47.7894 22.69 47.7147 23.082 47.5654 23.446C47.4254 23.8007 47.2014 24.1087 46.8934 24.37C46.5947 24.6313 46.2167 24.8367 45.7594 24.986C45.302 25.1353 44.7607 25.21 44.1354 25.21C43.8927 25.21 43.6407 25.1913 43.3794 25.154C43.1274 25.1167 42.8894 25.07 42.6654 25.014C42.4414 24.958 42.2454 24.902 42.0774 24.846C41.9094 24.79 41.788 24.7433 41.7134 24.706L41.9654 23.572C42.124 23.6467 42.3854 23.7447 42.7494 23.866C43.1227 23.9873 43.5754 24.048 44.1074 24.048ZM51.5057 24.244C51.5057 24.496 51.4217 24.7153 51.2537 24.902C51.0857 25.0887 50.857 25.182 50.5677 25.182C50.2784 25.182 50.0497 25.0887 49.8817 24.902C49.7137 24.7153 49.6297 24.496 49.6297 24.244C49.6297 23.992 49.7137 23.7727 49.8817 23.586C50.0497 23.3993 50.2784 23.306 50.5677 23.306C50.857 23.306 51.0857 23.3993 51.2537 23.586C51.4217 23.7727 51.5057 23.992 51.5057 24.244ZM51.5057 18.658C51.5057 18.91 51.4217 19.1293 51.2537 19.316C51.0857 19.5027 50.857 19.596 50.5677 19.596C50.2784 19.596 50.0497 19.5027 49.8817 19.316C49.7137 19.1293 49.6297 18.91 49.6297 18.658C49.6297 18.406 49.7137 18.1867 49.8817 18C50.0497 17.8133 50.2784 17.72 50.5677 17.72C50.857 17.72 51.0857 17.8133 51.2537 18C51.4217 18.1867 51.5057 18.406 51.5057 18.658ZM52.991 20.142C52.991 18.518 53.2757 17.2673 53.845 16.39C54.4237 15.5127 55.2217 15.074 56.239 15.074C57.2563 15.074 58.0497 15.5127 58.619 16.39C59.1977 17.2673 59.487 18.518 59.487 20.142C59.487 21.766 59.1977 23.0167 58.619 23.894C58.0497 24.7713 57.2563 25.21 56.239 25.21C55.2217 25.21 54.4237 24.7713 53.845 23.894C53.2757 23.0167 52.991 21.766 52.991 20.142ZM58.115 20.142C58.115 19.61 58.0823 19.106 58.017 18.63C57.961 18.154 57.8583 17.7387 57.709 17.384C57.569 17.0293 57.3777 16.7493 57.135 16.544C56.8923 16.3293 56.5937 16.222 56.239 16.222C55.8843 16.222 55.5857 16.3293 55.343 16.544C55.1003 16.7493 54.9043 17.0293 54.755 17.384C54.615 17.7387 54.5123 18.154 54.447 18.63C54.391 19.106 54.363 19.61 54.363 20.142C54.363 20.674 54.391 21.178 54.447 21.654C54.5123 22.13 54.615 22.5453 54.755 22.9C54.9043 23.2547 55.1003 23.5393 55.343 23.754C55.5857 23.9593 55.8843 24.062 56.239 24.062C56.5937 24.062 56.8923 23.9593 57.135 23.754C57.3777 23.5393 57.569 23.2547 57.709 22.9C57.8583 22.5453 57.961 22.13 58.017 21.654C58.0823 21.178 58.115 20.674 58.115 20.142ZM63.4554 27.59H60.3054V26.568H62.2374V15.06H60.3054V14.038H63.4554V27.59ZM68.841 25V17.4L69.771 17.24V19.9C69.9443 19.8333 70.1277 19.7833 70.321 19.75C70.521 19.71 70.7177 19.69 70.911 19.69C71.3243 19.69 71.6677 19.75 71.941 19.87C72.2143 19.9833 72.431 20.1467 72.591 20.36C72.7577 20.5667 72.8743 20.8167 72.941 21.11C73.0077 21.4033 73.041 21.7267 73.041 22.08V25H72.111V22.28C72.111 21.96 72.0877 21.6867 72.041 21.46C72.001 21.2333 71.931 21.05 71.831 20.91C71.731 20.77 71.5977 20.67 71.431 20.61C71.2643 20.5433 71.0577 20.51 70.811 20.51C70.711 20.51 70.6077 20.5167 70.501 20.53C70.3943 20.5433 70.291 20.56 70.191 20.58C70.0977 20.5933 70.011 20.61 69.931 20.63C69.8577 20.65 69.8043 20.6667 69.771 20.68V25H68.841ZM74.2639 22.41C74.2639 21.95 74.3306 21.55 74.4639 21.21C74.5972 20.8633 74.7739 20.5767 74.9939 20.35C75.2139 20.1233 75.4672 19.9533 75.7539 19.84C76.0406 19.7267 76.3339 19.67 76.6339 19.67C77.3339 19.67 77.8706 19.89 78.2439 20.33C78.6172 20.7633 78.8039 21.4267 78.8039 22.32C78.8039 22.36 78.8039 22.4133 78.8039 22.48C78.8039 22.54 78.8006 22.5967 78.7939 22.65H75.2339C75.2739 23.19 75.4306 23.6 75.7039 23.88C75.9772 24.16 76.4039 24.3 76.9839 24.3C77.3106 24.3 77.5839 24.2733 77.8039 24.22C78.0306 24.16 78.2006 24.1033 78.3139 24.05L78.4439 24.83C78.3306 24.89 78.1306 24.9533 77.8439 25.02C77.5639 25.0867 77.2439 25.12 76.8839 25.12C76.4306 25.12 76.0372 25.0533 75.7039 24.92C75.3772 24.78 75.1072 24.59 74.8939 24.35C74.6806 24.11 74.5206 23.8267 74.4139 23.5C74.3139 23.1667 74.2639 22.8033 74.2639 22.41ZM77.8339 21.9C77.8406 21.48 77.7339 21.1367 77.5139 20.87C77.3006 20.5967 77.0039 20.46 76.6239 20.46C76.4106 20.46 76.2206 20.5033 76.0539 20.59C75.8939 20.67 75.7572 20.7767 75.6439 20.91C75.5306 21.0433 75.4406 21.1967 75.3739 21.37C75.3139 21.5433 75.2739 21.72 75.2539 21.9H77.8339ZM83.2498 25C83.1765 24.8533 83.0865 24.69 82.9798 24.51C82.8732 24.33 82.7565 24.1467 82.6298 23.96C82.5032 23.7667 82.3732 23.5767 82.2398 23.39C82.1065 23.2033 81.9765 23.0267 81.8498 22.86C81.7232 23.0267 81.5932 23.2067 81.4598 23.4C81.3265 23.5867 81.1965 23.7767 81.0698 23.97C80.9498 24.1567 80.8365 24.34 80.7298 24.52C80.6232 24.7 80.5332 24.86 80.4598 25H79.4998C79.7332 24.5467 80.0098 24.0867 80.3298 23.62C80.6565 23.1467 80.9798 22.6967 81.2998 22.27L79.5798 19.8H80.6298L81.8698 21.62L83.1198 19.8H84.1098L82.4298 22.21C82.7498 22.6433 83.0765 23.1033 83.4098 23.59C83.7498 24.07 84.0365 24.54 84.2698 25H83.2498Z" fill="black"/>
</g>
<defs>
<clipPath id="clip0_1051_2">
<rect width="469" height="161" fill="white"/>
</clipPath>
</defs>
</svg>
