<svg width="16" height="16" viewBox="0 0 40 40" fill="none" xmlns="http://www.w3.org/2000/svg">
<path d="M8.33333 31.6666H10.6667L25.0417 17.2916L22.7083 14.9583L8.33333 29.3333V31.6666ZM32.1667 14.8749L25.0833 7.87492L27.4167 5.54159C28.0556 4.9027 28.8406 4.58325 29.7717 4.58325C30.7028 4.58325 31.4872 4.9027 32.125 5.54159L34.4583 7.87492C35.0972 8.51381 35.4306 9.28492 35.4583 10.1883C35.4861 11.0916 35.1806 11.8621 34.5417 12.4999L32.1667 14.8749ZM29.75 17.3333L12.0833 34.9999H5V27.9166L22.6667 10.2499L29.75 17.3333ZM23.875 16.1249L22.7083 14.9583L25.0417 17.2916L23.875 16.1249Z" fill="white"/>
</svg>
