<svg width="28" height="28" viewBox="0 0 28 28" fill="none" xmlns="http://www.w3.org/2000/svg">
<path d="M22.1667 3.5H5.83333C4.55 3.5 3.5 4.55 3.5 5.83333V22.1667C3.5 23.45 4.55 24.5 5.83333 24.5H22.1667C23.45 24.5 24.5 23.45 24.5 22.1667V5.83333C24.5 4.55 23.45 3.5 22.1667 3.5ZM10.5 15.75C10.5 17.0333 9.45 17.5 8.16667 17.5C6.88333 17.5 5.83333 17.0333 5.83333 15.75V14H7.58333V15.75H8.75V10.5H10.5V15.75ZM16.3333 13.4167C16.3333 14.35 15.5167 15.1667 14.5833 15.1667H13.4167V17.5H11.6667V10.5H14.5833C15.5167 10.5 16.3333 11.3167 16.3333 12.25V13.4167ZM13.4167 12.25H14.5833V13.4167H13.4167V12.25Z" stroke="#FF5712" stroke-width="0.5" stroke-linecap="round" stroke-linejoin="round"/>
</svg>
