<svg width="28" height="28" viewBox="0 0 28 28" fill="none" xmlns="http://www.w3.org/2000/svg">
<path d="M22.1667 3.5H5.83333C4.55 3.5 3.5 4.55 3.5 5.83333V22.1667C3.5 23.45 4.55 24.5 5.83333 24.5H22.1667C23.45 24.5 24.5 23.45 24.5 22.1667V5.83333C24.5 4.55 23.45 3.5 22.1667 3.5ZM11.0833 13.4167C11.0833 14.35 10.2667 15.1667 9.33333 15.1667H8.16667V17.5H6.41667V10.5H9.33333C10.2667 10.5 11.0833 11.3167 11.0833 12.25V13.4167ZM16.9167 15.75C16.9167 16.6833 16.1 17.5 15.1667 17.5H12.25V10.5H15.1667C16.1 10.5 16.9167 11.3167 16.9167 12.25V15.75ZM21.5833 12.25H19.8333V13.4167H21.5833V15.1667H19.8333V17.5H18.0833V10.5H21.5833V12.25ZM14 12.25H15.1667V15.75H14V12.25ZM8.16667 12.25H9.33333V13.4167H8.16667V12.25Z" stroke="#FF5712" stroke-width="0.5" stroke-linejoin="round"/>
</svg>
