<svg width="28" height="28" viewBox="0 0 28 28" fill="none" xmlns="http://www.w3.org/2000/svg">
<path d="M22.1667 3.5H5.83333C4.55 3.5 3.5 4.55 3.5 5.83333V22.1667C3.5 23.45 4.55 24.5 5.83333 24.5H22.1667C23.45 24.5 24.5 23.45 24.5 22.1667V5.83333C24.5 4.55 23.45 3.5 22.1667 3.5ZM10.5 13.4167C10.5 14.35 9.68333 15.1667 8.75 15.1667H7.58333V17.5H5.83333V10.5H8.75C9.68333 10.5 10.5 11.3167 10.5 12.25V13.4167ZM16.3333 17.5H14.5833L13.4167 14.5833V17.5H11.6667V10.5H13.4167L14.5833 13.4167V10.5H16.3333V17.5ZM7.58333 12.25H8.75V13.4167H7.58333V12.25Z" stroke="#FF5712" stroke-width="0.5" stroke-linejoin="round"/>
</svg>
