<svg width="19" height="19" viewBox="0 0 19 19" fill="none" xmlns="http://www.w3.org/2000/svg">
<path d="M4.375 18.6C4.125 18.35 4 18.054 4 17.712C4 17.3707 4.125 17.075 4.375 16.825L11.7 9.5L4.35 2.15C4.11667 1.91667 4 1.625 4 1.275C4 0.925 4.125 0.625 4.375 0.375C4.625 0.125 4.921 0 5.263 0C5.60433 0 5.9 0.125 6.15 0.375L14.55 8.8C14.65 8.9 14.721 9.00833 14.763 9.125C14.8043 9.24167 14.825 9.36667 14.825 9.5C14.825 9.63333 14.8043 9.75833 14.763 9.875C14.721 9.99167 14.65 10.1 14.55 10.2L6.125 18.625C5.89167 18.8583 5.60433 18.975 5.263 18.975C4.921 18.975 4.625 18.85 4.375 18.6Z" fill="url(#paint0_linear_904_8)"/>
<defs>
<linearGradient id="paint0_linear_904_8" x1="9.10626" y1="0.822715" x2="18.0924" y2="13.5443" gradientUnits="userSpaceOnUse">
<stop stop-color="#FFC000"/>
<stop offset="1" stop-color="#D80103"/>
</linearGradient>
</defs>
</svg>
