<svg width="584" height="496" viewBox="0 0 584 496" fill="none" xmlns="http://www.w3.org/2000/svg">
<path fill-rule="evenodd" clip-rule="evenodd" d="M267.5 0.621933C255.343 2.10693 235.852 6.46893 224.703 10.1989C193.899 20.5059 168.477 35.6259 143.866 58.2799L133.733 67.6079L104.866 67.3429L76 67.0769L75.693 62.8269L75.385 58.5769H57.443H39.5V76.5769V94.5769H57.44H75.379L75.69 90.8269L76 87.0769L158.328 86.8209C203.609 86.6799 241.267 86.9069 242.013 87.3249C242.759 87.7419 260.228 104.845 280.832 125.33L318.294 162.577H376.897H435.5V153.077V143.577H381.31H327.12L293.56 110.206C275.102 91.8509 257.782 74.7509 255.071 72.2059L250.142 67.5769H207.321C183.769 67.5769 164.5 67.1889 164.5 66.7159C164.5 66.2419 167.762 63.3559 171.75 60.3029C214.437 27.6189 267.375 13.7319 321 21.1519C392.969 31.1099 454.427 80.8489 479.542 149.463C487.491 171.182 491.453 193.531 491.482 216.827L491.5 231.577H501.42H511.341L511.99 225.327C512.778 217.742 511.118 193.387 508.973 181.066C499.295 125.457 467.876 75.1279 421.5 40.9429C395.75 21.9629 362.485 8.08393 328 1.93193C318.27 0.196932 278.1 -0.674067 267.5 0.621933ZM283.5 53.5769V63.5769H293.5H303.5V53.5769V43.5769H293.5H283.5V53.5769ZM349.5 75.5769V85.5769H359.5H369.5V75.5769V65.5769H359.5H349.5V75.5769ZM96.635 121.327C85.523 143.516 78.399 167.847 74.968 195.327L74.312 200.577H55.467H36.621L36.31 196.827L36 193.077H18H0V211.077V229.077H18H36L36.31 225.33L36.62 221.582L217.31 221.33L398 221.077V211.077V201.077L246.607 200.824L95.213 200.571L95.883 193.366C97.75 173.277 105.944 147.083 117.007 125.837L124.432 111.577H112.975H101.518L96.635 121.327ZM152.5 128.577V138.577H163H173.5V128.577V118.577H163H152.5V128.577ZM236.5 128.577V138.577H246.5H256.5V128.577V118.577H246.5H236.5V128.577ZM188.5 173.577V184.577H199.5H210.5V173.577V162.577H199.5H188.5V173.577ZM294.5 256.577V267.577H305.5H316.5V256.577V245.577H305.5H294.5V256.577ZM546.5 251.077V255.577L470.25 255.6L394 255.622L356 293.053L318 330.483L223.424 330.53L128.849 330.577L122.664 320.195C116.898 310.516 109.687 296.006 108.068 290.827L107.365 288.577H172.433H237.5V268.577V248.577H199.5H161.5V260.577V272.577H147.533H133.566L133.283 261.327L133 250.077L114 249.577C103.55 249.302 90.786 249.235 85.634 249.427L76.269 249.778L76.931 254.927C79.057 271.454 87.329 296.656 97.039 316.189L104.191 330.577H84.903H65.615L65.307 326.327L65 322.077H46.5H28V340.577V359.077H46.5H65L65.31 355.327L65.621 351.577H195.687H325.754L364.007 314.077L402.259 276.577H442.38C466.765 276.577 482.5 276.946 482.5 277.517C482.5 279.78 476.811 294.046 471.493 305.116C461.157 326.636 447.062 345.502 427.922 363.438C399.088 390.457 366.021 406.77 325 414.21C310.835 416.779 275.173 416.78 261 414.212C229.321 408.471 201.888 397.184 178.062 380.089L170.378 374.577H155.236H140.094L144.047 378.676C160.043 395.263 193.122 415.517 219 424.571C244.478 433.485 265.283 436.971 293 436.971C328.817 436.971 357.339 430.477 389 415.114C442.473 389.167 482.889 342.655 501.558 285.577L504.338 277.077L525.357 276.807L546.377 276.538L546.688 280.307L547 284.077L565.25 284.35L583.5 284.622V265.6V246.577H565H546.5V251.077ZM402.5 296.577V307.577H413.5H424.5V296.577V285.577H413.5H402.5V296.577ZM368.5 351.577V371.577H388.5H408.5V351.577V331.577H388.5H368.5V351.577ZM311.5 379.577V390.577H322.5H333.5V379.577V368.577H322.5H311.5V379.577ZM118 449.577C117.622 450.189 109.756 450.577 97.741 450.577C82.465 450.577 78.367 450.844 79.3 451.777C80.993 453.47 80.993 490.684 79.3 492.377C78.367 493.31 82.576 493.577 98.241 493.577C110.59 493.577 118.621 493.964 119 494.577C120.489 496.987 121.5 495.168 121.5 490.077C121.5 484.986 120.489 483.167 119 485.577C118.636 486.166 112.656 486.577 104.441 486.577H90.5V480.577V474.577H99.441C104.359 474.577 108.66 475.027 109 475.577C110.489 477.987 111.5 476.168 111.5 471.077C111.5 465.986 110.489 464.167 109 466.577C108.66 467.127 104.359 467.577 99.441 467.577H90.5V462.577V457.577H103.941C111.823 457.577 117.638 457.991 118 458.577C119.489 460.987 120.5 459.168 120.5 454.077C120.5 448.986 119.489 447.167 118 449.577ZM167 449.577C166.622 450.189 158.756 450.577 146.741 450.577C131.465 450.577 127.367 450.844 128.3 451.777C129.993 453.47 129.993 490.684 128.3 492.377C127.367 493.31 128.744 493.577 134.5 493.577C140.256 493.577 141.633 493.31 140.7 492.377C139.959 491.636 139.5 487.999 139.5 482.877V474.577H148.441C153.359 474.577 157.66 475.027 158 475.577C159.489 477.987 160.5 476.168 160.5 471.077C160.5 465.986 159.489 464.167 158 466.577C157.66 467.127 153.359 467.577 148.441 467.577H139.5V462.577V457.577H152.941C160.823 457.577 166.638 457.991 167 458.577C168.489 460.987 169.5 459.168 169.5 454.077C169.5 448.986 168.489 447.167 167 449.577ZM287 449.577C286.622 450.189 278.756 450.577 266.741 450.577C251.465 450.577 247.367 450.844 248.3 451.777C249.993 453.47 249.993 490.684 248.3 492.377C247.367 493.31 251.576 493.577 267.241 493.577C279.59 493.577 287.621 493.964 288 494.577C289.489 496.987 290.5 495.168 290.5 490.077C290.5 484.986 289.489 483.167 288 485.577C287.636 486.166 281.656 486.577 273.441 486.577H259.5V480.577V474.577H268.441C273.359 474.577 277.66 475.027 278 475.577C279.489 477.987 280.5 476.168 280.5 471.077C280.5 465.986 279.489 464.167 278 466.577C277.66 467.127 273.359 467.577 268.441 467.577H259.5V462.577V457.577H272.941C280.823 457.577 286.638 457.991 287 458.577C288.489 460.987 289.5 459.168 289.5 454.077C289.5 448.986 288.489 447.167 287 449.577ZM175.3 451.777C176.993 453.47 176.993 490.684 175.3 492.377C174.367 493.31 175.744 493.577 181.5 493.577C187.256 493.577 188.633 493.31 187.7 492.377C186.007 490.684 186.007 453.47 187.7 451.777C188.633 450.844 187.256 450.577 181.5 450.577C175.744 450.577 174.367 450.844 175.3 451.777ZM196.3 451.777C197.993 453.47 197.993 490.684 196.3 492.377C195.367 493.31 199.2 493.576 213.55 493.573C230.085 493.57 232.332 493.367 235.201 491.617C238.824 489.409 241.5 484.931 241.5 481.077C241.5 477.829 239.072 473.011 237.044 472.232C235.756 471.738 235.909 471.064 238.007 467.972C240.873 463.749 241.133 460.701 238.983 456.544C236.224 451.208 233.513 450.577 213.35 450.577C199.155 450.577 195.367 450.844 196.3 451.777ZM297.3 451.777C298.993 453.47 298.993 490.684 297.3 492.377C296.367 493.31 297.744 493.577 303.5 493.577C309.256 493.577 310.633 493.31 309.7 492.377C308.97 491.647 308.5 488.099 308.5 483.325V475.472L313.743 475.775L318.985 476.077L323.791 483.077C326.579 487.137 328.406 490.812 328.142 491.827C327.736 493.389 328.563 493.575 335.844 493.555C343.73 493.533 343.929 493.475 341.866 491.805C340.692 490.854 337.452 486.845 334.667 482.895L329.602 475.713L332.524 475.072C338.966 473.657 342.924 464.921 340.141 458.261C337.28 451.413 334.468 450.585 314.05 450.581C300.089 450.578 296.367 450.844 297.3 451.777ZM365.3 451.777C366.993 453.47 366.993 490.684 365.3 492.377C364.367 493.31 368.433 493.577 383.6 493.577C397.827 493.577 403.458 493.915 404.425 494.827C405.485 495.827 405.842 495.827 406.208 494.827C406.519 493.98 409.063 493.577 414.092 493.577C421.203 493.577 421.465 493.495 420.299 491.627C419.312 490.046 419.402 489.006 420.775 486.127L422.468 482.577H431.832H441.196L442.99 486.554C444.452 489.796 444.549 490.812 443.519 492.054C442.403 493.399 443.293 493.574 451.128 493.555C459.689 493.533 459.925 493.472 457.875 491.805C456.706 490.854 451.838 481.977 447.057 472.077C440.055 457.576 438.575 453.737 439.441 452.327C440.432 450.716 439.873 450.577 432.386 450.577C425.295 450.577 424.413 450.768 425.492 452.068C426.511 453.295 425.178 456.834 417.962 472.072C408.218 492.65 406.5 495.141 406.5 488.699C406.5 484.798 405.361 483.375 404 485.577C403.638 486.163 397.823 486.577 389.941 486.577H376.5V469.777C376.5 458.044 376.862 452.615 377.7 451.777C378.633 450.844 377.256 450.577 371.5 450.577C365.744 450.577 364.367 450.844 365.3 451.777ZM463.3 451.777C464.993 453.47 464.993 490.684 463.3 492.377C462.367 493.31 466.089 493.577 480.05 493.575C495.136 493.574 498.558 493.295 501.5 491.825C508.532 488.312 510.273 478.623 504.847 473.196C503.183 471.533 502.771 470.528 503.554 470.043C504.187 469.653 505.346 467.796 506.131 465.918C508.187 460.997 506.465 455.136 502.199 452.535C499.333 450.787 497.08 450.584 480.55 450.581C466.2 450.578 462.367 450.844 463.3 451.777ZM229.523 459.577C230.043 460.402 230.469 461.752 230.469 462.577C230.469 466.424 228.812 467.069 218.038 467.418L207.5 467.759V462.577V457.395L218.038 457.736C226.043 457.995 228.804 458.438 229.523 459.577ZM330.082 460.018C330.862 461.086 331.5 462.462 331.5 463.077C331.5 463.692 330.862 465.068 330.082 466.136C328.874 467.789 327.169 468.128 318.582 468.421L308.5 468.764V463.077V457.39L318.582 457.733C327.169 458.026 328.874 458.365 330.082 460.018ZM496.082 460.018C496.862 461.086 497.5 462.237 497.5 462.577C497.5 462.917 496.862 464.068 496.082 465.136C494.874 466.789 493.169 467.128 484.582 467.421L474.5 467.764V462.577V457.39L484.582 457.733C493.169 458.026 494.874 458.365 496.082 460.018ZM434.9 476.389C433.005 476.56 430.121 476.56 428.49 476.389L425.524 476.077L428.743 469.166L431.962 462.255L435.153 469.166L438.344 476.077L434.9 476.389ZM230.102 477.047C230.871 478.099 231.5 479.687 231.5 480.577C231.5 481.467 230.871 483.055 230.102 484.107C228.914 485.732 227.111 486.078 218.102 486.411L207.5 486.804V480.577V474.35L218.102 474.743C227.111 475.076 228.914 475.422 230.102 477.047ZM494.5 475.871C496.437 476.851 497 477.911 497 480.577C497 485.322 494.193 486.544 483.25 486.562L474.5 486.577V480.577V474.577L483.25 474.592C488.29 474.6 493.06 475.143 494.5 475.871Z" fill="url(#paint0_linear_706_6)"/>
<defs>
<linearGradient id="paint0_linear_706_6" x1="275.243" y1="21.4894" x2="427.853" y2="467.341" gradientUnits="userSpaceOnUse">
<stop stop-color="#FFC000"/>
<stop offset="1" stop-color="#D80103"/>
</linearGradient>
</defs>
</svg>
