<svg width="1931" height="322" viewBox="0 0 1931 322" fill="none" xmlns="http://www.w3.org/2000/svg">
<path fill-rule="evenodd" clip-rule="evenodd" d="M197.129 0.458297C188.17 1.55258 173.807 4.7669 165.591 7.5155C142.89 15.1106 124.156 26.2524 106.019 42.946L98.5522 49.8197L77.2791 49.6244L56.0069 49.4284L55.7806 46.2966L55.5536 43.1648H42.3316H29.1088V56.4289V69.6929H42.3294H55.5492L55.7784 66.9296L56.0069 64.1662L116.677 63.9776C150.046 63.8737 177.797 64.0409 178.347 64.349C178.897 64.6563 191.77 77.2593 206.954 92.3545L234.561 119.801H277.748H320.934V112.801V105.801H281H241.065L216.334 81.2098C202.732 67.6841 189.968 55.0833 187.97 53.2079L184.338 49.7968H152.782C135.425 49.7968 121.225 49.5109 121.225 49.1624C121.225 48.8131 123.629 46.6864 126.568 44.4367C158.026 20.3521 197.037 10.1189 236.555 15.5867C289.592 22.9246 334.882 59.5769 353.39 110.138C359.248 126.142 362.168 142.611 362.189 159.778L362.202 170.647H369.513H376.824L377.302 166.041C377.883 160.452 376.659 142.505 375.079 133.426C367.947 92.4481 344.793 55.3611 310.617 30.1705C291.641 16.1843 267.127 5.95698 241.714 1.42362C234.543 0.145117 204.941 -0.496714 197.129 0.458297ZM208.92 39.4804V46.8493H216.29H223.659V39.4804V32.1115H216.29H208.92V39.4804ZM257.558 55.692V63.0609H264.927H272.296V55.692V48.3231H264.927H257.558V55.692ZM71.2135 89.4047C63.0247 105.756 57.7748 123.685 55.2463 143.935L54.7629 147.803H40.8754H26.9872L26.758 145.04L26.5296 142.277H13.2648H0V155.541V168.805H13.2648H26.5296L26.758 166.044L26.9865 163.282L160.143 163.096L293.299 162.91V155.541V148.172L181.733 147.985L70.1655 147.799L70.6593 142.49C72.0351 127.686 78.0736 108.384 86.2262 92.7281L91.698 82.22H83.2549H74.8119L71.2135 89.4047ZM112.382 94.7472V102.116H120.12H127.858V94.7472V87.3783H120.12H112.382V94.7472ZM174.284 94.7472V102.116H181.654H189.023V94.7472V87.3783H181.654H174.284V94.7472ZM138.912 127.907V136.013H147.018H155.124V127.907V119.801H147.018H138.912V127.907ZM217.027 189.069V197.175H225.133H233.239V189.069V180.963H225.133H217.027V189.069ZM402.733 185.016V188.332L346.542 188.349L290.351 188.366L262.348 215.948L234.344 243.53L164.648 243.565L94.953 243.599L90.3951 235.949C86.1459 228.816 80.8319 218.124 79.6388 214.308L79.1207 212.65H127.071H175.021V197.912V183.174H147.018H119.015V192.017V200.86H108.722H98.4291L98.2205 192.569L98.012 184.279L84.0103 183.911C76.3093 183.708 66.9031 183.659 63.1065 183.8L56.2051 184.059L56.6929 187.853C58.2597 200.032 64.3556 218.603 71.5112 232.997L76.7817 243.599H62.5678H48.3538L48.1268 240.467L47.9006 237.336H34.2674H20.6341V250.968V264.601H34.2674H47.9006L48.129 261.837L48.3582 259.074H144.208H240.059L268.248 231.44L296.438 203.807H326.004C343.974 203.807 355.57 204.079 355.57 204.5C355.57 206.167 351.377 216.68 347.458 224.837C339.841 240.695 329.454 254.597 315.35 267.814C294.101 287.724 269.733 299.745 239.503 305.228C229.064 307.121 202.784 307.121 192.339 305.229C168.994 300.999 148.778 292.681 131.22 280.084L125.557 276.022H114.398H103.24L106.153 279.043C117.941 291.266 142.318 306.191 161.388 312.863C180.164 319.431 195.496 322 215.921 322C242.316 322 263.335 317.215 286.667 305.894C326.073 286.774 355.856 252.499 369.614 210.439L371.663 204.176L387.153 203.977L402.643 203.778L402.872 206.556L403.102 209.334L416.551 209.535L430 209.735V195.718V181.7H416.367H402.733V185.016ZM296.615 218.545V226.651H304.721H312.828V218.545V210.439H304.721H296.615V218.545ZM271.56 259.074V273.812H286.298H301.037V259.074V244.336H286.298H271.56V259.074ZM229.554 279.707V287.813H237.661H245.767V279.707V271.601H237.661H229.554V279.707Z" fill="url(#paint0_linear_910_5)"/>
<path d="M580.128 89.7563C619.686 89.7563 645.585 88.4796 646.829 86.4659C651.732 78.536 655.06 84.5213 655.06 101.273C655.06 118.024 651.732 124.009 646.829 116.08C645.637 114.151 626.492 112.789 600.541 112.789H556.287V129.241V145.693H585.725C601.917 145.693 616.078 144.212 617.197 142.403C622.1 134.473 625.428 140.458 625.428 157.21C625.428 173.961 622.1 179.946 617.197 172.016C616.078 170.207 601.917 168.726 585.725 168.726H556.287V188.468V208.211H602.187C629.234 208.211 648.923 206.859 650.122 204.92C655.024 196.991 658.353 202.976 658.353 219.727C658.353 236.479 655.024 242.464 650.122 234.534C648.874 232.517 622.432 231.244 581.774 231.244C530.198 231.244 516.341 230.365 519.412 227.295C524.986 221.725 524.986 99.2755 519.412 93.7048C516.341 90.6349 529.833 89.7563 580.128 89.7563Z" fill="url(#paint1_linear_910_5)"/>
<path d="M741.457 89.7563C781.015 89.7563 806.913 88.4796 808.158 86.4659C813.06 78.536 816.389 84.5213 816.389 101.273C816.389 118.024 813.06 124.009 808.158 116.08C806.966 114.151 787.821 112.789 761.87 112.789H717.616V129.241V145.693H747.054C763.246 145.693 777.407 144.212 778.526 142.403C783.429 134.473 786.757 140.458 786.757 157.21C786.757 173.961 783.429 179.946 778.526 172.016C777.407 170.207 763.246 168.726 747.054 168.726H717.616V196.036C717.616 212.89 719.127 224.857 721.567 227.295C724.639 230.365 720.105 231.244 701.154 231.244C682.203 231.244 677.669 230.365 680.741 227.295C686.315 221.725 686.315 99.2755 680.741 93.7048C677.669 90.6349 691.162 89.7563 741.457 89.7563Z" fill="url(#paint2_linear_910_5)"/>
<path d="M1136.55 89.7563C1176.11 89.7563 1202 88.4796 1203.25 86.4659C1208.15 78.536 1211.48 84.5213 1211.48 101.273C1211.48 118.024 1208.15 124.009 1203.25 116.08C1202.06 114.151 1182.91 112.789 1156.96 112.789H1112.71V129.241V145.693H1142.14C1158.34 145.693 1172.5 144.212 1173.62 142.403C1178.52 134.473 1181.85 140.458 1181.85 157.21C1181.85 173.961 1178.52 179.946 1173.62 172.016C1172.5 170.207 1158.34 168.726 1142.14 168.726H1112.71V188.468V208.211H1158.61C1185.65 208.211 1205.34 206.859 1206.54 204.92C1211.44 196.991 1214.77 202.976 1214.77 219.727C1214.77 236.479 1211.44 242.464 1206.54 234.534C1205.29 232.517 1178.85 231.244 1138.19 231.244C1086.62 231.244 1072.76 230.365 1075.83 227.295C1081.41 221.725 1081.41 99.2755 1075.83 93.7048C1072.76 90.6349 1086.25 89.7563 1136.55 89.7563Z" fill="url(#paint3_linear_910_5)"/>
<path d="M835.485 227.295C841.059 221.725 841.059 99.2755 835.485 93.7048C832.413 90.6349 836.947 89.7563 855.898 89.7563C874.849 89.7563 879.383 90.6349 876.311 93.7048C870.737 99.2755 870.737 221.725 876.311 227.295C879.383 230.365 874.849 231.244 855.898 231.244C836.947 231.244 832.413 230.365 835.485 227.295Z" fill="url(#paint4_linear_910_5)"/>
<path fill-rule="evenodd" clip-rule="evenodd" d="M904.626 227.295C910.2 221.725 910.2 99.2755 904.626 93.7048C901.554 90.6349 914.026 89.7563 960.762 89.7563C1027.15 89.7563 1036.07 91.8326 1045.16 109.39C1052.24 123.068 1051.38 133.097 1041.94 146.993C1035.04 157.167 1034.53 159.385 1038.77 161.01C1045.45 163.573 1053.44 179.426 1053.44 190.114C1053.44 202.795 1044.63 217.529 1032.7 224.795C1023.26 230.553 1015.86 231.221 961.42 231.231C914.174 231.24 901.554 230.365 904.626 227.295ZM1014.01 119.37C1015.72 122.085 1017.12 126.527 1017.12 129.241C1017.12 141.899 1011.67 144.022 976.197 145.17L941.501 146.292V129.241V112.19L976.197 113.312C1002.55 114.165 1011.64 115.622 1014.01 119.37ZM1020.52 188.468C1020.52 185.54 1018.45 180.315 1015.92 176.853C1012.01 171.506 1006.07 170.368 976.407 169.272L941.501 167.979V188.468V208.958L976.407 207.665C1006.07 206.569 1012.01 205.43 1015.92 200.084C1018.45 196.622 1020.52 191.397 1020.52 188.468Z" fill="url(#paint5_linear_910_5)"/>
<path fill-rule="evenodd" clip-rule="evenodd" d="M1237.16 93.7048C1242.73 99.2755 1242.73 221.725 1237.16 227.295C1234.09 230.365 1238.62 231.244 1257.57 231.244C1276.53 231.244 1281.06 230.365 1277.99 227.295C1275.58 224.893 1274.04 213.219 1274.04 197.51V171.671L1291.3 172.668L1308.56 173.662L1324.38 196.694C1333.56 210.053 1339.57 222.146 1338.71 225.485C1337.37 230.625 1340.09 231.237 1364.06 231.171C1390.03 231.099 1390.68 230.908 1383.89 225.413C1380.03 222.284 1369.36 209.093 1360.19 196.096L1343.51 172.464L1353.13 170.355C1374.34 165.699 1387.37 136.954 1378.21 115.04C1368.79 92.507 1359.53 89.7826 1292.31 89.7695C1246.34 89.7596 1234.09 90.6349 1237.16 93.7048ZM1349.76 130.886C1349.76 128.863 1347.66 124.335 1345.09 120.821C1341.12 115.382 1335.5 114.267 1307.23 113.302L1274.04 112.174V130.886V149.599L1307.23 148.47C1335.5 147.506 1341.12 146.391 1345.09 140.952C1347.66 137.438 1349.76 132.91 1349.76 130.886Z" fill="url(#paint6_linear_910_5)"/>
<path fill-rule="evenodd" clip-rule="evenodd" d="M1461.05 93.7048C1466.62 99.2755 1466.62 221.725 1461.05 227.295C1457.97 230.365 1471.36 231.244 1521.3 231.244C1568.14 231.244 1586.68 232.356 1589.86 235.357C1593.35 238.647 1594.53 238.647 1595.73 235.357C1596.76 232.57 1605.13 231.244 1621.69 231.244C1645.1 231.244 1645.96 230.974 1642.13 224.827C1638.88 219.625 1639.17 216.203 1643.69 206.73L1649.27 195.049H1680.1H1710.93L1716.83 208.135C1721.65 218.803 1721.97 222.146 1718.58 226.232C1714.9 230.658 1717.83 231.234 1743.63 231.171C1771.81 231.099 1772.59 230.898 1765.84 225.413C1761.99 222.284 1745.97 193.075 1730.22 160.5C1707.17 112.786 1702.3 100.154 1705.15 95.5145C1708.41 90.2137 1706.57 89.7563 1681.92 89.7563C1658.57 89.7563 1655.67 90.3848 1659.22 94.6623C1662.58 98.6996 1658.19 110.344 1634.43 160.484C1602.35 228.193 1596.69 236.39 1596.69 215.193C1596.69 202.357 1592.94 197.675 1588.46 204.92C1587.27 206.849 1568.13 208.211 1542.17 208.211H1497.92V152.932C1497.92 114.326 1499.11 96.4622 1501.87 93.7048C1504.94 90.6349 1500.41 89.7563 1481.46 89.7563C1462.51 89.7563 1457.97 90.6349 1461.05 93.7048ZM1669.09 174.688C1674.46 175.251 1683.96 175.251 1690.2 174.688L1701.54 173.662L1691.03 150.922L1680.53 128.182L1669.93 150.922L1659.33 173.662L1669.09 174.688Z" fill="url(#paint7_linear_910_5)"/>
<path fill-rule="evenodd" clip-rule="evenodd" d="M1783.7 227.295C1789.28 221.725 1789.28 99.2755 1783.7 93.7048C1780.63 90.6349 1793.25 89.7596 1840.5 89.7695C1894.92 89.7793 1902.34 90.4473 1911.78 96.1989C1925.82 104.757 1931.49 124.042 1924.72 140.234C1922.14 146.414 1918.32 152.524 1916.24 153.807C1913.66 155.403 1915.01 158.71 1920.49 164.182C1938.36 182.039 1932.63 213.92 1909.47 225.479C1899.79 230.316 1888.52 231.234 1838.85 231.237C1792.89 231.244 1780.63 230.365 1783.7 227.295ZM1891.64 120.821C1894.2 124.335 1896.3 128.122 1896.3 129.241C1896.3 130.36 1894.2 134.147 1891.64 137.661C1887.66 143.1 1882.04 144.216 1853.77 145.18L1820.58 146.309V129.241V112.174L1853.77 113.302C1882.04 114.267 1887.66 115.382 1891.64 120.821ZM1894.66 188.468C1894.66 179.696 1892.8 176.208 1886.43 172.984C1881.69 170.588 1865.98 168.802 1849.39 168.775L1820.58 168.726V188.468V208.211L1849.39 208.161C1885.42 208.102 1894.66 204.081 1894.66 188.468Z" fill="url(#paint8_linear_910_5)"/>
<defs>
<linearGradient id="paint0_linear_910_5" x1="202.835" y1="13.9612" x2="292.335" y2="310.551" gradientUnits="userSpaceOnUse">
<stop stop-color="#FFC000"/>
<stop offset="1" stop-color="#D80103"/>
</linearGradient>
<linearGradient id="paint1_linear_910_5" x1="1185.05" y1="89.7205" x2="1191.93" y2="245.185" gradientUnits="userSpaceOnUse">
<stop stop-color="#FFC000"/>
<stop offset="1" stop-color="#D80103"/>
</linearGradient>
<linearGradient id="paint2_linear_910_5" x1="1185.05" y1="89.7205" x2="1191.93" y2="245.185" gradientUnits="userSpaceOnUse">
<stop stop-color="#FFC000"/>
<stop offset="1" stop-color="#D80103"/>
</linearGradient>
<linearGradient id="paint3_linear_910_5" x1="1185.05" y1="89.7205" x2="1191.93" y2="245.185" gradientUnits="userSpaceOnUse">
<stop stop-color="#FFC000"/>
<stop offset="1" stop-color="#D80103"/>
</linearGradient>
<linearGradient id="paint4_linear_910_5" x1="1185.05" y1="89.7205" x2="1191.93" y2="245.185" gradientUnits="userSpaceOnUse">
<stop stop-color="#FFC000"/>
<stop offset="1" stop-color="#D80103"/>
</linearGradient>
<linearGradient id="paint5_linear_910_5" x1="1185.05" y1="89.7205" x2="1191.93" y2="245.185" gradientUnits="userSpaceOnUse">
<stop stop-color="#FFC000"/>
<stop offset="1" stop-color="#D80103"/>
</linearGradient>
<linearGradient id="paint6_linear_910_5" x1="1185.05" y1="89.7205" x2="1191.93" y2="245.185" gradientUnits="userSpaceOnUse">
<stop stop-color="#FFC000"/>
<stop offset="1" stop-color="#D80103"/>
</linearGradient>
<linearGradient id="paint7_linear_910_5" x1="1185.05" y1="89.7205" x2="1191.93" y2="245.185" gradientUnits="userSpaceOnUse">
<stop stop-color="#FFC000"/>
<stop offset="1" stop-color="#D80103"/>
</linearGradient>
<linearGradient id="paint8_linear_910_5" x1="1185.05" y1="89.7205" x2="1191.93" y2="245.185" gradientUnits="userSpaceOnUse">
<stop stop-color="#FFC000"/>
<stop offset="1" stop-color="#D80103"/>
</linearGradient>
</defs>
</svg>
