<svg width="192" height="192" viewBox="0 0 192 192" fill="none" xmlns="http://www.w3.org/2000/svg">
<path fill-rule="evenodd" clip-rule="evenodd" d="M91.5694 24.1574C75.1224 25.2488 58.6873 32.5384 46.8076 44.0108L44.4534 46.2844H34.9094H25.3657L25.2645 44.8872L25.1635 43.4901H19.0818H13.0001V49.5718V55.6535H19.0818H25.1635L25.2654 54.4207L25.3677 53.188L52.551 53.2011L79.7347 53.2139L92.3912 65.6818L105.048 78.1497L124.279 78.079L143.511 78.008V74.7205V71.4331L125.594 71.3361L107.678 71.2388L95.0212 58.766L82.3646 46.2932L68.3931 46.2752L54.4216 46.2571L55.6635 45.1594C59.2794 41.9644 66.8799 37.5776 72.8344 35.2495C81.0296 32.0449 86.7586 31.0245 96.5005 31.0331C104.245 31.0396 107.066 31.3667 113.251 32.9743C129.034 37.0766 143.377 47.7617 152.193 61.9834C158.389 71.9795 161.756 84.0124 161.756 96.1624V100.527H165.037C168.313 100.527 168.318 100.525 168.537 99.6546C168.86 98.3686 168.391 89.3604 167.804 85.569C165.838 72.8694 160.477 60.5363 152.846 51.1599C150.257 47.9794 142.834 40.7477 139.946 38.5921C125.918 28.1234 108.796 23.0144 91.5694 24.1574ZM93.0487 42.0107V45.6269H96.6649H100.281V42.0107V38.3946H96.6649H93.0487V42.0107ZM114.746 49.243V52.8592H118.362H121.978V49.243V45.6269H118.362H114.746V49.243ZM33.295 61.4887C33.1125 61.7149 32.2269 63.4529 31.3268 65.3514C28.3119 71.7103 26.1238 79.0899 25.1264 86.2614L24.5596 90.3358H18.3888H12.218L12.1158 89.103L12.0139 87.8702L6.00677 87.7805L0 87.6911L0.0894176 93.6978L0.179164 99.7049H6.09652H12.0139L12.1158 98.4731L12.2177 97.241L71.618 97.1582L131.018 97.075V93.7876V90.5001L81.2508 90.417L31.4833 90.3338L31.7091 88.1158C32.4563 80.7664 35.5952 71.107 39.4244 64.3717C40.3501 62.7438 41.1075 61.3365 41.1075 61.2448C41.1075 61.153 39.4244 61.0778 37.3671 61.0778C34.7713 61.0778 33.5254 61.2033 33.295 61.4887ZM49.9835 66.6664V70.2825H53.7641H57.5446V66.6664V63.0502H53.7641H49.9835V66.6664ZM77.5979 66.6664V70.2825H81.214H84.8302V66.6664V63.0502H81.214H77.5979V66.6664ZM62.147 81.4597V85.0759H65.7632H69.3793V81.4597V77.8436H65.7632H62.147V81.4597ZM96.9936 108.745V112.361H100.61H104.226V108.745V105.129H100.61H96.9936V108.745ZM179.837 106.937V108.417H154.735H129.633L117.176 120.729L104.719 133.042L73.7473 133.057L42.7759 133.072L41.5023 131.182C39.8235 128.689 38.1817 125.641 36.7139 122.29C36.0567 120.789 35.5189 119.495 35.5189 119.414C35.5189 119.332 45.1346 119.265 56.8871 119.265H78.2553V112.686V106.107L65.681 106.194L53.1066 106.28L53.0139 110.142L52.9215 114.005H48.4937H44.0662V110.26C44.0662 107.148 43.9784 106.481 43.5461 106.315C43.2601 106.205 39.044 106.115 34.177 106.115H25.3279V106.968C25.3279 110.78 28.7228 121.643 31.9573 128.182C33.1931 130.68 34.2039 132.802 34.2039 132.898C34.2039 132.994 31.3932 133.072 27.9578 133.072H21.7118V131.593V130.114H15.4657H9.21956V136.36V142.606H15.4657H21.7118V141.291V139.976H64.5402H107.369L119.905 127.648L132.442 115.32H145.619C154.478 115.32 158.797 115.432 158.797 115.66C158.797 116.373 155.705 123.812 154.429 126.169C150.763 132.942 147.926 136.749 142.541 142.121C135.888 148.759 129.517 153.049 121.156 156.519C100.795 164.969 76.2642 162.074 58.5197 149.127L56.3168 147.52L51.219 147.61L46.1212 147.701L48.7922 150.078C53.4853 154.254 57.3615 156.927 63.7907 160.422C69.5815 163.57 78.7918 166.437 86.967 167.636C90.8215 168.201 102.188 168.2 106.034 167.634C114.117 166.445 120.781 164.421 127.787 161.029C145.15 152.623 158.734 137.311 164.694 119.429L166.008 115.485L172.922 115.396L179.837 115.307V116.629V117.95H185.918H192V111.704V105.458H185.918H179.837V106.937ZM132.498 121.895V125.511H136.114H139.73V121.895V118.279H136.114H132.498V121.895ZM121.321 139.976V146.551H127.895H134.47V139.976V133.401H127.895H121.321V139.976ZM102.582 149.181V152.797H106.198H109.815V149.181V145.564H106.198H102.582V149.181Z" fill="url(#paint0_linear_705_8)"/>
<defs>
<linearGradient id="paint0_linear_705_8" x1="90.5684" y1="30.2461" x2="130.675" y2="162.893" gradientUnits="userSpaceOnUse">
<stop stop-color="#FFC000"/>
<stop offset="1" stop-color="#D80103"/>
</linearGradient>
</defs>
</svg>
